<svg width="128" height="128" viewBox="0 0 128 128" fill="none" xmlns="http://www.w3.org/2000/svg">
<g clip-path="url(#clip0_156_2058)">
<g filter="url(#filter0_i_156_2058)">
<rect width="128" height="128" rx="28" fill="url(#paint0_radial_156_2058)"/>
</g>
<path d="M90.6045 45.9803L94.7102 38.8537C95.0942 38.187 94.6131 37.3545 93.8437 37.3545H53.729C53.3717 37.3545 53.0415 37.5451 52.8629 37.8546L31.4782 74.9011C31.2995 75.2106 31.2997 75.592 31.4785 75.9015L33.8555 80.0133L35.654 83.1246C36.0394 83.7914 37.0021 83.7905 37.3863 83.1232L58.1951 46.9822C58.3736 46.6722 58.704 46.4812 59.0617 46.4812H89.738C90.0956 46.4812 90.426 46.2902 90.6045 45.9803Z" fill="url(#paint1_linear_156_2058)"/>
<path d="M62.4064 54.0501L58.2696 61.1831C57.8837 61.8483 58.3619 62.6819 59.1309 62.6848L76.8559 62.7499C77.6271 62.7527 78.105 63.5904 77.7149 64.2557L73.5324 71.3887C73.3529 71.6949 73.0246 71.8829 72.6698 71.8829H52.7043C52.348 71.8829 52.0186 72.0725 51.8396 72.3806L40.9897 91.0568C40.81 91.3661 40.8092 91.7479 40.9877 92.058L45.1655 99.3157C45.5499 99.9835 46.5133 99.9839 46.8983 99.3165L57.1137 81.6072C57.2923 81.2976 57.6225 81.1069 57.9799 81.1069H77.9978C78.3548 81.1069 78.6847 80.9166 78.8634 80.6076L93.6443 55.0524C94.0299 54.3858 93.5488 53.5518 92.7786 53.5518H63.2715C62.9149 53.5518 62.5853 53.7416 62.4064 54.0501Z" fill="url(#paint2_linear_156_2058)"/>
</g>
<defs>
<filter id="filter0_i_156_2058" x="-4.03529" y="0" width="132.035" height="140.106" filterUnits="userSpaceOnUse" color-interpolation-filters="sRGB">
<feFlood flood-opacity="0" result="BackgroundImageFix"/>
<feBlend mode="normal" in="SourceGraphic" in2="BackgroundImageFix" result="shape"/>
<feColorMatrix in="SourceAlpha" type="matrix" values="0 0 0 0 0 0 0 0 0 0 0 0 0 0 0 0 0 0 127 0" result="hardAlpha"/>
<feOffset dx="-4.03529" dy="12.1059"/>
<feGaussianBlur stdDeviation="6.05294"/>
<feComposite in2="hardAlpha" operator="arithmetic" k2="-1" k3="1"/>
<feColorMatrix type="matrix" values="0 0 0 0 1 0 0 0 0 1 0 0 0 0 1 0 0 0 0.02 0"/>
<feBlend mode="normal" in2="shape" result="effect1_innerShadow_156_2058"/>
</filter>
<radialGradient id="paint0_radial_156_2058" cx="0" cy="0" r="1" gradientUnits="userSpaceOnUse" gradientTransform="translate(67.627 66.2897) rotate(61.8349) scale(76.4934)">
<stop stop-color="#000F24"/>
<stop offset="0.855769" stop-color="#000F24"/>
</radialGradient>
<linearGradient id="paint1_linear_156_2058" x1="55.5921" y1="36.6837" x2="76.7267" y2="87.568" gradientUnits="userSpaceOnUse">
<stop offset="0.104657" stop-color="#55C2FF"/>
<stop offset="0.25" stop-color="#A5D4FF"/>
<stop offset="0.5" stop-color="#55C2FF"/>
<stop offset="0.6877" stop-color="#A5D4FF"/>
<stop offset="1" stop-color="#55C2FF"/>
</linearGradient>
<linearGradient id="paint2_linear_156_2058" x1="61.0951" y1="52.881" x2="84.8698" y2="100.726" gradientUnits="userSpaceOnUse">
<stop offset="0.104657" stop-color="#55C2FF"/>
<stop offset="0.25" stop-color="#A5D4FF"/>
<stop offset="0.5" stop-color="#55C2FF"/>
<stop offset="0.6877" stop-color="#A5D4FF"/>
<stop offset="1" stop-color="#55C2FF"/>
</linearGradient>
<clipPath id="clip0_156_2058">
<rect width="128" height="128" fill="white"/>
</clipPath>
</defs>
</svg>
