<svg width="240" height="68" viewBox="0 0 240 68" fill="none" xmlns="http://www.w3.org/2000/svg">
<g clip-path="url(#clip0_161_2092)">
<g filter="url(#filter0_dddd_161_2092)">
<g filter="url(#filter1_i_161_2092)">
<rect y="2" width="64" height="64" rx="8" fill="url(#paint0_radial_161_2092)"/>
</g>
<path d="M45.3013 24.7416L47.3541 21.1783C47.5461 20.845 47.3055 20.4287 46.9209 20.4287H26.8635C26.6849 20.4287 26.5198 20.524 26.4305 20.6787L15.7381 39.202C15.6488 39.3568 15.6489 39.5475 15.7383 39.7022L16.9267 41.7581L17.826 43.3138C18.0187 43.6471 18.5001 43.6467 18.6922 43.313L29.0966 25.2426C29.1858 25.0876 29.351 24.992 29.5299 24.992H44.868C45.0468 24.992 45.212 24.8966 45.3013 24.7416Z" fill="url(#paint1_linear_161_2092)"/>
<path d="M31.2032 28.2745L29.1348 31.8411C28.9419 32.1737 29.181 32.5905 29.5655 32.5919L38.428 32.6244C38.8135 32.6259 39.0525 33.0447 38.8575 33.3774L36.7662 36.9439C36.6765 37.0969 36.5123 37.191 36.3349 37.191H26.3521C26.174 37.191 26.0093 37.2858 25.9198 37.4398L20.4949 46.7779C20.405 46.9326 20.4046 47.1235 20.4939 47.2785L22.5827 50.9073C22.7749 51.2412 23.2567 51.2415 23.4492 50.9077L28.5569 42.0531C28.6462 41.8983 28.8113 41.8029 28.99 41.8029H38.9989C39.1774 41.8029 39.3424 41.7078 39.4317 41.5533L46.8221 28.7757C47.0149 28.4424 46.7744 28.0254 46.3893 28.0254H31.6357C31.4574 28.0254 31.2927 28.1203 31.2032 28.2745Z" fill="url(#paint2_linear_161_2092)"/>
</g>
<mask id="path-4-outside-1_161_2092" maskUnits="userSpaceOnUse" x="76" y="17" width="161" height="40" fill="black">
<rect fill="white" x="76" y="17" width="161" height="40"/>
<path d="M80.605 33.609H94.684V36.963H80.605V33.609ZM80.995 48H77.095V20.7H96.361V24.093H80.995V48ZM113.374 48V43.632L113.179 42.813V35.364C113.179 33.778 112.711 32.556 111.775 31.698C110.865 30.814 109.487 30.372 107.641 30.372C106.419 30.372 105.223 30.58 104.053 30.996C102.883 31.386 101.895 31.919 101.089 32.595L99.5291 29.787C100.595 28.929 101.869 28.279 103.351 27.837C104.859 27.369 106.432 27.135 108.07 27.135C110.904 27.135 113.088 27.824 114.622 29.202C116.156 30.58 116.923 32.686 116.923 35.52V48H113.374ZM106.588 48.234C105.054 48.234 103.702 47.974 102.532 47.454C101.388 46.934 100.504 46.219 99.8801 45.309C99.2561 44.373 98.9441 43.32 98.9441 42.15C98.9441 41.032 99.2041 40.018 99.7241 39.108C100.27 38.198 101.141 37.47 102.337 36.924C103.559 36.378 105.197 36.105 107.251 36.105H113.803V38.796H107.407C105.535 38.796 104.274 39.108 103.624 39.732C102.974 40.356 102.649 41.11 102.649 41.994C102.649 43.008 103.052 43.827 103.858 44.451C104.664 45.049 105.782 45.348 107.212 45.348C108.616 45.348 109.838 45.036 110.878 44.412C111.944 43.788 112.711 42.878 113.179 41.682L113.92 44.256C113.426 45.478 112.555 46.453 111.307 47.181C110.059 47.883 108.486 48.234 106.588 48.234ZM132.861 48.234C130.755 48.234 128.87 47.779 127.206 46.869C125.568 45.959 124.281 44.711 123.345 43.125C122.409 41.539 121.941 39.719 121.941 37.665C121.941 35.611 122.409 33.791 123.345 32.205C124.281 30.619 125.568 29.384 127.206 28.5C128.87 27.59 130.755 27.135 132.861 27.135C134.733 27.135 136.397 27.512 137.853 28.266C139.335 28.994 140.479 30.086 141.285 31.542L138.438 33.375C137.762 32.361 136.93 31.62 135.942 31.152C134.98 30.658 133.94 30.411 132.822 30.411C131.47 30.411 130.261 30.71 129.195 31.308C128.129 31.906 127.284 32.751 126.66 33.843C126.036 34.909 125.724 36.183 125.724 37.665C125.724 39.147 126.036 40.434 126.66 41.526C127.284 42.618 128.129 43.463 129.195 44.061C130.261 44.659 131.47 44.958 132.822 44.958C133.94 44.958 134.98 44.724 135.942 44.256C136.93 43.762 137.762 43.008 138.438 41.994L141.285 43.788C140.479 45.218 139.335 46.323 137.853 47.103C136.397 47.857 134.733 48.234 132.861 48.234ZM145.865 48V27.33H149.609V48H145.865ZM147.737 23.352C147.009 23.352 146.398 23.118 145.904 22.65C145.436 22.182 145.202 21.61 145.202 20.934C145.202 20.232 145.436 19.647 145.904 19.179C146.398 18.711 147.009 18.477 147.737 18.477C148.465 18.477 149.063 18.711 149.531 19.179C150.025 19.621 150.272 20.18 150.272 20.856C150.272 21.558 150.038 22.156 149.57 22.65C149.102 23.118 148.491 23.352 147.737 23.352ZM156.758 48V19.062H160.502V48H156.758ZM178.61 48.234C176.894 48.234 175.321 47.844 173.891 47.064C172.487 46.258 171.356 45.075 170.498 43.515C169.666 41.955 169.25 40.005 169.25 37.665C169.25 35.325 169.653 33.375 170.459 31.815C171.291 30.255 172.409 29.085 173.813 28.305C175.243 27.525 176.842 27.135 178.61 27.135C180.638 27.135 182.432 27.577 183.992 28.461C185.552 29.345 186.787 30.58 187.697 32.166C188.607 33.726 189.062 35.559 189.062 37.665C189.062 39.771 188.607 41.617 187.697 43.203C186.787 44.789 185.552 46.024 183.992 46.908C182.432 47.792 180.638 48.234 178.61 48.234ZM167.651 55.566V27.33H171.239V32.907L171.005 37.704L171.395 42.501V55.566H167.651ZM178.298 44.958C179.624 44.958 180.807 44.659 181.847 44.061C182.913 43.463 183.745 42.618 184.343 41.526C184.967 40.408 185.279 39.121 185.279 37.665C185.279 36.183 184.967 34.909 184.343 33.843C183.745 32.751 182.913 31.906 181.847 31.308C180.807 30.71 179.624 30.411 178.298 30.411C176.998 30.411 175.815 30.71 174.749 31.308C173.709 31.906 172.877 32.751 172.253 33.843C171.655 34.909 171.356 36.183 171.356 37.665C171.356 39.121 171.655 40.408 172.253 41.526C172.877 42.618 173.709 43.463 174.749 44.061C175.815 44.659 176.998 44.958 178.298 44.958ZM206.875 48V43.632L206.68 42.813V35.364C206.68 33.778 206.212 32.556 205.276 31.698C204.366 30.814 202.988 30.372 201.142 30.372C199.92 30.372 198.724 30.58 197.554 30.996C196.384 31.386 195.396 31.919 194.59 32.595L193.03 29.787C194.096 28.929 195.37 28.279 196.852 27.837C198.36 27.369 199.933 27.135 201.571 27.135C204.405 27.135 206.589 27.824 208.123 29.202C209.657 30.58 210.424 32.686 210.424 35.52V48H206.875ZM200.089 48.234C198.555 48.234 197.203 47.974 196.033 47.454C194.889 46.934 194.005 46.219 193.381 45.309C192.757 44.373 192.445 43.32 192.445 42.15C192.445 41.032 192.705 40.018 193.225 39.108C193.771 38.198 194.642 37.47 195.838 36.924C197.06 36.378 198.698 36.105 200.752 36.105H207.304V38.796H200.908C199.036 38.796 197.775 39.108 197.125 39.732C196.475 40.356 196.15 41.11 196.15 41.994C196.15 43.008 196.553 43.827 197.359 44.451C198.165 45.049 199.283 45.348 200.713 45.348C202.117 45.348 203.339 45.036 204.379 44.412C205.445 43.788 206.212 42.878 206.68 41.682L207.421 44.256C206.927 45.478 206.056 46.453 204.808 47.181C203.56 47.883 201.987 48.234 200.089 48.234ZM217.869 55.8C216.881 55.8 215.919 55.631 214.983 55.293C214.047 54.981 213.241 54.513 212.565 53.889L214.164 51.081C214.684 51.575 215.256 51.952 215.88 52.212C216.504 52.472 217.167 52.602 217.869 52.602C218.779 52.602 219.533 52.368 220.131 51.9C220.729 51.432 221.288 50.6 221.808 49.404L223.095 46.557L223.485 46.089L231.597 27.33H235.263L225.24 50.067C224.642 51.523 223.966 52.667 223.212 53.499C222.484 54.331 221.678 54.916 220.794 55.254C219.91 55.618 218.935 55.8 217.869 55.8ZM222.783 48.663L213.345 27.33H217.245L225.279 45.738L222.783 48.663Z"/>
</mask>
<path d="M80.605 33.609H94.684V36.963H80.605V33.609ZM80.995 48H77.095V20.7H96.361V24.093H80.995V48ZM113.374 48V43.632L113.179 42.813V35.364C113.179 33.778 112.711 32.556 111.775 31.698C110.865 30.814 109.487 30.372 107.641 30.372C106.419 30.372 105.223 30.58 104.053 30.996C102.883 31.386 101.895 31.919 101.089 32.595L99.5291 29.787C100.595 28.929 101.869 28.279 103.351 27.837C104.859 27.369 106.432 27.135 108.07 27.135C110.904 27.135 113.088 27.824 114.622 29.202C116.156 30.58 116.923 32.686 116.923 35.52V48H113.374ZM106.588 48.234C105.054 48.234 103.702 47.974 102.532 47.454C101.388 46.934 100.504 46.219 99.8801 45.309C99.2561 44.373 98.9441 43.32 98.9441 42.15C98.9441 41.032 99.2041 40.018 99.7241 39.108C100.27 38.198 101.141 37.47 102.337 36.924C103.559 36.378 105.197 36.105 107.251 36.105H113.803V38.796H107.407C105.535 38.796 104.274 39.108 103.624 39.732C102.974 40.356 102.649 41.11 102.649 41.994C102.649 43.008 103.052 43.827 103.858 44.451C104.664 45.049 105.782 45.348 107.212 45.348C108.616 45.348 109.838 45.036 110.878 44.412C111.944 43.788 112.711 42.878 113.179 41.682L113.92 44.256C113.426 45.478 112.555 46.453 111.307 47.181C110.059 47.883 108.486 48.234 106.588 48.234ZM132.861 48.234C130.755 48.234 128.87 47.779 127.206 46.869C125.568 45.959 124.281 44.711 123.345 43.125C122.409 41.539 121.941 39.719 121.941 37.665C121.941 35.611 122.409 33.791 123.345 32.205C124.281 30.619 125.568 29.384 127.206 28.5C128.87 27.59 130.755 27.135 132.861 27.135C134.733 27.135 136.397 27.512 137.853 28.266C139.335 28.994 140.479 30.086 141.285 31.542L138.438 33.375C137.762 32.361 136.93 31.62 135.942 31.152C134.98 30.658 133.94 30.411 132.822 30.411C131.47 30.411 130.261 30.71 129.195 31.308C128.129 31.906 127.284 32.751 126.66 33.843C126.036 34.909 125.724 36.183 125.724 37.665C125.724 39.147 126.036 40.434 126.66 41.526C127.284 42.618 128.129 43.463 129.195 44.061C130.261 44.659 131.47 44.958 132.822 44.958C133.94 44.958 134.98 44.724 135.942 44.256C136.93 43.762 137.762 43.008 138.438 41.994L141.285 43.788C140.479 45.218 139.335 46.323 137.853 47.103C136.397 47.857 134.733 48.234 132.861 48.234ZM145.865 48V27.33H149.609V48H145.865ZM147.737 23.352C147.009 23.352 146.398 23.118 145.904 22.65C145.436 22.182 145.202 21.61 145.202 20.934C145.202 20.232 145.436 19.647 145.904 19.179C146.398 18.711 147.009 18.477 147.737 18.477C148.465 18.477 149.063 18.711 149.531 19.179C150.025 19.621 150.272 20.18 150.272 20.856C150.272 21.558 150.038 22.156 149.57 22.65C149.102 23.118 148.491 23.352 147.737 23.352ZM156.758 48V19.062H160.502V48H156.758ZM178.61 48.234C176.894 48.234 175.321 47.844 173.891 47.064C172.487 46.258 171.356 45.075 170.498 43.515C169.666 41.955 169.25 40.005 169.25 37.665C169.25 35.325 169.653 33.375 170.459 31.815C171.291 30.255 172.409 29.085 173.813 28.305C175.243 27.525 176.842 27.135 178.61 27.135C180.638 27.135 182.432 27.577 183.992 28.461C185.552 29.345 186.787 30.58 187.697 32.166C188.607 33.726 189.062 35.559 189.062 37.665C189.062 39.771 188.607 41.617 187.697 43.203C186.787 44.789 185.552 46.024 183.992 46.908C182.432 47.792 180.638 48.234 178.61 48.234ZM167.651 55.566V27.33H171.239V32.907L171.005 37.704L171.395 42.501V55.566H167.651ZM178.298 44.958C179.624 44.958 180.807 44.659 181.847 44.061C182.913 43.463 183.745 42.618 184.343 41.526C184.967 40.408 185.279 39.121 185.279 37.665C185.279 36.183 184.967 34.909 184.343 33.843C183.745 32.751 182.913 31.906 181.847 31.308C180.807 30.71 179.624 30.411 178.298 30.411C176.998 30.411 175.815 30.71 174.749 31.308C173.709 31.906 172.877 32.751 172.253 33.843C171.655 34.909 171.356 36.183 171.356 37.665C171.356 39.121 171.655 40.408 172.253 41.526C172.877 42.618 173.709 43.463 174.749 44.061C175.815 44.659 176.998 44.958 178.298 44.958ZM206.875 48V43.632L206.68 42.813V35.364C206.68 33.778 206.212 32.556 205.276 31.698C204.366 30.814 202.988 30.372 201.142 30.372C199.92 30.372 198.724 30.58 197.554 30.996C196.384 31.386 195.396 31.919 194.59 32.595L193.03 29.787C194.096 28.929 195.37 28.279 196.852 27.837C198.36 27.369 199.933 27.135 201.571 27.135C204.405 27.135 206.589 27.824 208.123 29.202C209.657 30.58 210.424 32.686 210.424 35.52V48H206.875ZM200.089 48.234C198.555 48.234 197.203 47.974 196.033 47.454C194.889 46.934 194.005 46.219 193.381 45.309C192.757 44.373 192.445 43.32 192.445 42.15C192.445 41.032 192.705 40.018 193.225 39.108C193.771 38.198 194.642 37.47 195.838 36.924C197.06 36.378 198.698 36.105 200.752 36.105H207.304V38.796H200.908C199.036 38.796 197.775 39.108 197.125 39.732C196.475 40.356 196.15 41.11 196.15 41.994C196.15 43.008 196.553 43.827 197.359 44.451C198.165 45.049 199.283 45.348 200.713 45.348C202.117 45.348 203.339 45.036 204.379 44.412C205.445 43.788 206.212 42.878 206.68 41.682L207.421 44.256C206.927 45.478 206.056 46.453 204.808 47.181C203.56 47.883 201.987 48.234 200.089 48.234ZM217.869 55.8C216.881 55.8 215.919 55.631 214.983 55.293C214.047 54.981 213.241 54.513 212.565 53.889L214.164 51.081C214.684 51.575 215.256 51.952 215.88 52.212C216.504 52.472 217.167 52.602 217.869 52.602C218.779 52.602 219.533 52.368 220.131 51.9C220.729 51.432 221.288 50.6 221.808 49.404L223.095 46.557L223.485 46.089L231.597 27.33H235.263L225.24 50.067C224.642 51.523 223.966 52.667 223.212 53.499C222.484 54.331 221.678 54.916 220.794 55.254C219.91 55.618 218.935 55.8 217.869 55.8ZM222.783 48.663L213.345 27.33H217.245L225.279 45.738L222.783 48.663Z" fill="white"/>
<path d="M80.605 33.609V33.109H80.105V33.609H80.605ZM94.684 33.609H95.184V33.109H94.684V33.609ZM94.684 36.963V37.463H95.184V36.963H94.684ZM80.605 36.963H80.105V37.463H80.605V36.963ZM80.995 48V48.5H81.495V48H80.995ZM77.095 48H76.595V48.5H77.095V48ZM77.095 20.7V20.2H76.595V20.7H77.095ZM96.361 20.7H96.861V20.2H96.361V20.7ZM96.361 24.093V24.593H96.861V24.093H96.361ZM80.995 24.093V23.593H80.495V24.093H80.995ZM80.605 33.609V34.109H94.684V33.609V33.109H80.605V33.609ZM94.684 33.609H94.184V36.963H94.684H95.184V33.609H94.684ZM94.684 36.963V36.463H80.605V36.963V37.463H94.684V36.963ZM80.605 36.963H81.105V33.609H80.605H80.105V36.963H80.605ZM80.995 48V47.5H77.095V48V48.5H80.995V48ZM77.095 48H77.595V20.7H77.095H76.595V48H77.095ZM77.095 20.7V21.2H96.361V20.7V20.2H77.095V20.7ZM96.361 20.7H95.861V24.093H96.361H96.861V20.7H96.361ZM96.361 24.093V23.593H80.995V24.093V24.593H96.361V24.093ZM80.995 24.093H80.495V48H80.995H81.495V24.093H80.995ZM113.374 48H112.874V48.5H113.374V48ZM113.374 43.632H113.874V43.5733L113.861 43.5162L113.374 43.632ZM113.179 42.813H112.679V42.8717L112.693 42.9288L113.179 42.813ZM111.775 31.698L111.427 32.0566L111.432 32.0617L111.437 32.0666L111.775 31.698ZM104.053 30.996L104.211 31.4704L104.221 31.4671L104.053 30.996ZM101.089 32.595L100.652 32.8378L100.946 33.3674L101.41 32.9781L101.089 32.595ZM99.5291 29.787L99.2156 29.3975L98.8875 29.6616L99.0921 30.0298L99.5291 29.787ZM103.351 27.837L103.494 28.3162L103.499 28.3145L103.351 27.837ZM116.923 48V48.5H117.423V48H116.923ZM102.532 47.454L102.325 47.9092L102.329 47.9109L102.532 47.454ZM99.8801 45.309L99.4641 45.5864L99.4678 45.5918L99.8801 45.309ZM99.7241 39.108L99.2953 38.8507L99.29 38.8599L99.7241 39.108ZM102.337 36.924L102.133 36.4675L102.129 36.4692L102.337 36.924ZM113.803 36.105H114.303V35.605H113.803V36.105ZM113.803 38.796V39.296H114.303V38.796H113.803ZM103.624 39.732L103.278 39.3713V39.3713L103.624 39.732ZM103.858 44.451L103.552 44.8464L103.56 44.8526L103.858 44.451ZM110.878 44.412L110.626 43.9805L110.621 43.9833L110.878 44.412ZM113.179 41.682L113.66 41.5437L113.251 40.1254L112.714 41.4998L113.179 41.682ZM113.92 44.256L114.384 44.4434L114.448 44.2835L114.401 44.1177L113.92 44.256ZM111.307 47.181L111.552 47.6168L111.559 47.6129L111.307 47.181ZM113.374 48H113.874V43.632H113.374H112.874V48H113.374ZM113.374 43.632L113.861 43.5162L113.666 42.6972L113.179 42.813L112.693 42.9288L112.888 43.7478L113.374 43.632ZM113.179 42.813H113.679V35.364H113.179H112.679V42.813H113.179ZM113.179 35.364H113.679C113.679 33.6752 113.177 32.3047 112.113 31.3294L111.775 31.698L111.437 32.0666C112.245 32.8073 112.679 33.8808 112.679 35.364H113.179ZM111.775 31.698L112.124 31.3394C111.085 30.3306 109.558 29.872 107.641 29.872V30.372V30.872C109.416 30.872 110.645 31.2974 111.427 32.0566L111.775 31.698ZM107.641 30.372V29.872C106.361 29.872 105.109 30.0901 103.886 30.5249L104.053 30.996L104.221 31.4671C105.338 31.0699 106.477 30.872 107.641 30.872V30.372ZM104.053 30.996L103.895 30.5217C102.675 30.9282 101.63 31.4892 100.768 32.2119L101.089 32.595L101.41 32.9781C102.161 32.3488 103.091 31.8438 104.211 31.4703L104.053 30.996ZM101.089 32.595L101.526 32.3522L99.9662 29.5442L99.5291 29.787L99.0921 30.0298L100.652 32.8378L101.089 32.595ZM99.5291 29.787L99.8426 30.1765C100.852 29.3641 102.066 28.742 103.494 28.3161L103.351 27.837L103.208 27.3579C101.672 27.816 100.338 28.4939 99.2156 29.3975L99.5291 29.787ZM103.351 27.837L103.499 28.3145C104.958 27.862 106.48 27.635 108.07 27.635V27.135V26.635C106.384 26.635 104.761 26.876 103.203 27.3595L103.351 27.837ZM108.07 27.135V27.635C110.827 27.635 112.875 28.3049 114.288 29.574L114.622 29.202L114.956 28.83C113.301 27.3431 110.981 26.635 108.07 26.635V27.135ZM114.622 29.202L114.288 29.574C115.681 30.8256 116.423 32.7727 116.423 35.52H116.923H117.423C117.423 32.5993 116.631 30.3344 114.956 28.83L114.622 29.202ZM116.923 35.52H116.423V48H116.923H117.423V35.52H116.923ZM116.923 48V47.5H113.374V48V48.5H116.923V48ZM106.588 48.234V47.734C105.11 47.734 103.83 47.4836 102.735 46.9971L102.532 47.454L102.329 47.9109C103.574 48.4644 104.998 48.734 106.588 48.734V48.234ZM102.532 47.454L102.739 46.9988C101.666 46.5112 100.858 45.8511 100.293 45.0262L99.8801 45.309L99.4678 45.5918C100.15 46.5869 101.11 47.3568 102.325 47.9092L102.532 47.454ZM99.8801 45.309L100.296 45.0317C99.7292 44.1812 99.4441 43.2255 99.4441 42.15H98.9441H98.4441C98.4441 43.4145 98.7831 44.5648 99.4641 45.5863L99.8801 45.309ZM98.9441 42.15H99.4441C99.4441 41.113 99.6843 40.1855 100.158 39.3561L99.7241 39.108L99.29 38.8599C98.724 39.8505 98.4441 40.951 98.4441 42.15H98.9441ZM99.7241 39.108L100.153 39.3652C100.636 38.5607 101.419 37.893 102.545 37.3788L102.337 36.924L102.129 36.4692C100.864 37.047 99.9047 37.8353 99.2954 38.8508L99.7241 39.108ZM102.337 36.924L102.541 37.3805C103.674 36.8744 105.234 36.605 107.251 36.605V36.105V35.605C105.161 35.605 103.444 35.8816 102.133 36.4675L102.337 36.924ZM107.251 36.105V36.605H113.803V36.105V35.605H107.251V36.105ZM113.803 36.105H113.303V38.796H113.803H114.303V36.105H113.803ZM113.803 38.796V38.296H107.407V38.796V39.296H113.803V38.796ZM107.407 38.796V38.296C106.447 38.296 105.62 38.3757 104.937 38.5446C104.257 38.7129 103.688 38.9777 103.278 39.3713L103.624 39.732L103.97 40.0927C104.21 39.8623 104.597 39.6591 105.177 39.5154C105.756 39.3723 106.495 39.296 107.407 39.296V38.796ZM103.624 39.732L103.278 39.3713C102.532 40.0875 102.149 40.9709 102.149 41.994H102.649H103.149C103.149 41.2491 103.416 40.6245 103.97 40.0927L103.624 39.732ZM102.649 41.994H102.149C102.149 43.1636 102.624 44.1283 103.552 44.8464L103.858 44.451L104.164 44.0556C103.48 43.5257 103.149 42.8524 103.149 41.994H102.649ZM103.858 44.451L103.56 44.8526C104.482 45.5365 105.719 45.848 107.212 45.848V45.348V44.848C105.845 44.848 104.846 44.5615 104.156 44.0494L103.858 44.451ZM107.212 45.348V45.848C108.692 45.848 110.006 45.5183 111.135 44.8407L110.878 44.412L110.621 43.9833C109.67 44.5537 108.54 44.848 107.212 44.848V45.348ZM110.878 44.412L111.131 44.8435C112.298 44.1603 113.138 43.1604 113.645 41.8642L113.179 41.682L112.714 41.4998C112.285 42.5956 111.59 43.4157 110.626 43.9805L110.878 44.412ZM113.179 41.682L112.699 41.8203L113.44 44.3943L113.92 44.256L114.401 44.1177L113.66 41.5437L113.179 41.682ZM113.92 44.256L113.457 44.0686C113.008 45.1779 112.217 46.0712 111.055 46.7491L111.307 47.181L111.559 47.6129C112.893 46.8348 113.844 45.7781 114.384 44.4434L113.92 44.256ZM111.307 47.181L111.062 46.7452C109.909 47.3936 108.427 47.734 106.588 47.734V48.234V48.734C108.545 48.734 110.209 48.3724 111.552 47.6168L111.307 47.181ZM127.206 46.869L126.963 47.3061L126.966 47.3077L127.206 46.869ZM123.345 43.125L122.914 43.3791V43.3791L123.345 43.125ZM123.345 32.205L122.914 31.9509V31.9509L123.345 32.205ZM127.206 28.5L127.443 28.94L127.446 28.9387L127.206 28.5ZM137.853 28.266L137.623 28.7101L137.632 28.7148L137.853 28.266ZM141.285 31.542L141.555 31.9624L141.949 31.7091L141.722 31.2998L141.285 31.542ZM138.438 33.375L138.022 33.6524L138.295 34.0618L138.708 33.7954L138.438 33.375ZM135.942 31.152L135.713 31.5968L135.72 31.6004L135.728 31.6039L135.942 31.152ZM126.66 33.843L127.091 34.0956L127.094 34.0911L126.66 33.843ZM126.66 41.526L126.226 41.7741V41.7741L126.66 41.526ZM135.942 44.256L136.16 44.7056L136.165 44.7032L135.942 44.256ZM138.438 41.994L138.704 41.571L138.292 41.3112L138.022 41.7166L138.438 41.994ZM141.285 43.788L141.72 44.0335L141.954 43.6188L141.551 43.365L141.285 43.788ZM137.853 47.103L138.083 47.547L138.086 47.5455L137.853 47.103ZM132.861 48.234V47.734C130.829 47.734 129.028 47.2958 127.446 46.4303L127.206 46.869L126.966 47.3077C128.711 48.2622 130.68 48.734 132.861 48.734V48.234ZM127.206 46.869L127.449 46.4319C125.887 45.5643 124.665 44.3789 123.775 42.8709L123.345 43.125L122.914 43.3791C123.896 45.0431 125.249 46.3537 126.963 47.3061L127.206 46.869ZM123.345 43.125L123.775 42.8709C122.89 41.3705 122.441 39.6402 122.441 37.665H121.941H121.441C121.441 39.7978 121.928 41.7075 122.914 43.3791L123.345 43.125ZM121.941 37.665H122.441C122.441 35.6898 122.89 33.9595 123.775 32.4591L123.345 32.205L122.914 31.9509C121.928 33.6225 121.441 35.5322 121.441 37.665H121.941ZM123.345 32.205L123.775 32.4591C124.665 30.9524 125.884 29.7813 127.443 28.94L127.206 28.5L126.968 28.06C125.251 28.9867 123.897 30.2856 122.914 31.9509L123.345 32.205ZM127.206 28.5L127.446 28.9387C129.028 28.0732 130.829 27.635 132.861 27.635V27.135V26.635C130.68 26.635 128.711 27.1068 126.966 28.0613L127.206 28.5ZM132.861 27.135V27.635C134.664 27.635 136.247 27.9977 137.623 28.71L137.853 28.266L138.083 27.822C136.546 27.0263 134.801 26.635 132.861 26.635V27.135ZM137.853 28.266L137.632 28.7148C139.022 29.3973 140.09 30.4168 140.847 31.7842L141.285 31.542L141.722 31.2998C140.867 29.7552 139.648 28.5907 138.073 27.8172L137.853 28.266ZM141.285 31.542L141.014 31.1216L138.167 32.9546L138.438 33.375L138.708 33.7954L141.555 31.9624L141.285 31.542ZM138.438 33.375L138.854 33.0976C138.133 32.0171 137.235 31.2113 136.156 30.7001L135.942 31.152L135.728 31.6039C136.625 32.0287 137.39 32.7049 138.022 33.6524L138.438 33.375ZM135.942 31.152L136.17 30.7072C135.135 30.1757 134.016 29.911 132.822 29.911V30.411V30.911C133.863 30.911 134.824 31.1403 135.713 31.5968L135.942 31.152ZM132.822 30.411V29.911C131.393 29.911 130.099 30.2277 128.95 30.8719L129.195 31.308L129.439 31.7441C130.423 31.1923 131.546 30.911 132.822 30.911V30.411ZM129.195 31.308L128.95 30.8719C127.803 31.5156 126.893 32.4266 126.226 33.5949L126.66 33.843L127.094 34.0911C127.674 33.0754 128.455 32.2964 129.439 31.7441L129.195 31.308ZM126.66 33.843L126.228 33.5904C125.551 34.747 125.224 36.112 125.224 37.665H125.724H126.224C126.224 36.254 126.52 35.071 127.091 34.0956L126.66 33.843ZM125.724 37.665H125.224C125.224 39.2184 125.551 40.594 126.226 41.7741L126.66 41.526L127.094 41.2779C126.52 40.274 126.224 39.0756 126.224 37.665H125.724ZM126.66 41.526L126.226 41.7741C126.893 42.9424 127.803 43.8534 128.95 44.4971L129.195 44.061L129.439 43.6249C128.455 43.0726 127.674 42.2936 127.094 41.2779L126.66 41.526ZM129.195 44.061L128.95 44.4971C130.099 45.1413 131.393 45.458 132.822 45.458V44.958V44.458C131.546 44.458 130.423 44.1767 129.439 43.6249L129.195 44.061ZM132.822 44.958V45.458C134.012 45.458 135.127 45.2083 136.16 44.7056L135.942 44.256L135.723 43.8064C134.832 44.2397 133.867 44.458 132.822 44.458V44.958ZM135.942 44.256L136.165 44.7032C137.239 44.1664 138.135 43.3501 138.854 42.2714L138.438 41.994L138.022 41.7166C137.389 42.6659 136.62 43.3576 135.718 43.8088L135.942 44.256ZM138.438 41.994L138.171 42.417L141.018 44.211L141.285 43.788L141.551 43.365L138.704 41.571L138.438 41.994ZM141.285 43.788L140.849 43.5425C140.091 44.8869 139.019 45.9244 137.62 46.6605L137.853 47.103L138.086 47.5455C139.651 46.7216 140.866 45.5491 141.72 44.0335L141.285 43.788ZM137.853 47.103L137.623 46.659C136.247 47.3713 134.664 47.734 132.861 47.734V48.234V48.734C134.801 48.734 136.546 48.3427 138.083 47.547L137.853 47.103ZM145.865 48H145.365V48.5H145.865V48ZM145.865 27.33V26.83H145.365V27.33H145.865ZM149.609 27.33H150.109V26.83H149.609V27.33ZM149.609 48V48.5H150.109V48H149.609ZM145.904 22.65L145.551 23.0037L145.561 23.013L145.904 22.65ZM145.904 19.179L145.56 18.8159L145.551 18.8254L145.904 19.179ZM149.531 19.179L149.178 19.5326L149.188 19.5424L149.198 19.5516L149.531 19.179ZM149.57 22.65L149.924 23.0037L149.933 22.9939L149.57 22.65ZM145.865 48H146.365V27.33H145.865H145.365V48H145.865ZM145.865 27.33V27.83H149.609V27.33V26.83H145.865V27.33ZM149.609 27.33H149.109V48H149.609H150.109V27.33H149.609ZM149.609 48V47.5H145.865V48V48.5H149.609V48ZM147.737 23.352V22.852C147.128 22.852 146.643 22.6605 146.248 22.287L145.904 22.65L145.561 23.013C146.154 23.5755 146.891 23.852 147.737 23.852V23.352ZM145.904 22.65L146.258 22.2964C145.886 21.9244 145.702 21.4806 145.702 20.934H145.202H144.702C144.702 21.7394 144.987 22.4396 145.551 23.0036L145.904 22.65ZM145.202 20.934H145.702C145.702 20.3557 145.89 19.9007 146.258 19.5326L145.904 19.179L145.551 18.8254C144.983 19.3933 144.702 20.1083 144.702 20.934H145.202ZM145.904 19.179L146.248 19.542C146.643 19.1685 147.128 18.977 147.737 18.977V18.477V17.977C146.891 17.977 146.154 18.2535 145.561 18.816L145.904 19.179ZM147.737 18.477V18.977C148.347 18.977 148.813 19.1681 149.178 19.5326L149.531 19.179L149.885 18.8254C149.313 18.2539 148.583 17.977 147.737 17.977V18.477ZM149.531 19.179L149.198 19.5516C149.584 19.8966 149.772 20.319 149.772 20.856H150.272H150.772C150.772 20.041 150.467 19.3454 149.865 18.8064L149.531 19.179ZM150.272 20.856H149.772C149.772 21.4346 149.584 21.9082 149.207 22.3061L149.57 22.65L149.933 22.9939C150.492 22.4038 150.772 21.6814 150.772 20.856H150.272ZM149.57 22.65L149.217 22.2964C148.856 22.6574 148.379 22.852 147.737 22.852V23.352V23.852C148.604 23.852 149.349 23.5786 149.924 23.0036L149.57 22.65ZM156.758 48H156.258V48.5H156.758V48ZM156.758 19.062V18.562H156.258V19.062H156.758ZM160.502 19.062H161.002V18.562H160.502V19.062ZM160.502 48V48.5H161.002V48H160.502ZM156.758 48H157.258V19.062H156.758H156.258V48H156.758ZM156.758 19.062V19.562H160.502V19.062V18.562H156.758V19.062ZM160.502 19.062H160.002V48H160.502H161.002V19.062H160.502ZM160.502 48V47.5H156.758V48V48.5H160.502V48ZM173.891 47.064L173.642 47.4977L173.651 47.5029L173.891 47.064ZM170.498 43.515L170.056 43.7503L170.059 43.756L170.498 43.515ZM170.459 31.815L170.017 31.5797L170.014 31.5855L170.459 31.815ZM173.813 28.305L173.573 27.866L173.57 27.8679L173.813 28.305ZM183.992 28.461L184.238 28.026V28.026L183.992 28.461ZM187.697 32.166L187.263 32.4148L187.265 32.4179L187.697 32.166ZM187.697 43.203L187.263 42.9542V42.9542L187.697 43.203ZM183.992 46.908L184.238 47.343V47.343L183.992 46.908ZM167.651 55.566H167.151V56.066H167.651V55.566ZM167.651 27.33V26.83H167.151V27.33H167.651ZM171.239 27.33H171.739V26.83H171.239V27.33ZM171.239 32.907L171.738 32.9314L171.739 32.9192V32.907H171.239ZM171.005 37.704L170.505 37.6796L170.504 37.7121L170.506 37.7445L171.005 37.704ZM171.395 42.501H171.895V42.4807L171.893 42.4605L171.395 42.501ZM171.395 55.566V56.066H171.895V55.566H171.395ZM181.847 44.061L181.602 43.6249L181.597 43.6275L181.847 44.061ZM184.343 41.526L183.906 41.2823L183.904 41.2858L184.343 41.526ZM184.343 33.843L183.904 34.0832L183.907 34.0894L183.911 34.0956L184.343 33.843ZM181.847 31.308L181.597 31.7415L181.602 31.7441L181.847 31.308ZM174.749 31.308L174.504 30.8719L174.499 30.8745L174.749 31.308ZM172.253 33.843L171.818 33.5949L171.816 33.5984L172.253 33.843ZM172.253 41.526L171.812 41.7619L171.818 41.7741L172.253 41.526ZM174.749 44.061L174.499 44.4945L174.504 44.4971L174.749 44.061ZM178.61 48.234V47.734C176.973 47.734 175.483 47.3628 174.13 46.6251L173.891 47.064L173.651 47.5029C175.159 48.3252 176.815 48.734 178.61 48.734V48.234ZM173.891 47.064L174.139 46.6304C172.823 45.8745 171.754 44.762 170.936 43.274L170.498 43.515L170.059 43.756C170.957 45.388 172.15 46.6415 173.642 47.4976L173.891 47.064ZM170.498 43.515L170.939 43.2797C170.156 41.8117 169.75 39.9485 169.75 37.665H169.25H168.75C168.75 40.0615 169.175 42.0983 170.056 43.7503L170.498 43.515ZM169.25 37.665H169.75C169.75 35.3794 170.144 33.514 170.903 32.0445L170.459 31.815L170.014 31.5855C169.162 33.236 168.75 35.2706 168.75 37.665H169.25ZM170.459 31.815L170.9 32.0503C171.691 30.5664 172.744 29.4707 174.055 28.7421L173.813 28.305L173.57 27.8679C172.073 28.6993 170.89 29.9436 170.017 31.5797L170.459 31.815ZM173.813 28.305L174.052 28.7439C175.402 28.0074 176.918 27.635 178.61 27.635V27.135V26.635C176.765 26.635 175.083 27.0426 173.573 27.8661L173.813 28.305ZM178.61 27.135V27.635C180.563 27.635 182.27 28.0599 183.745 28.896L183.992 28.461L184.238 28.026C182.593 27.094 180.712 26.635 178.61 26.635V27.135ZM183.992 28.461L183.745 28.896C185.226 29.7349 186.397 30.9049 187.263 32.4148L187.697 32.166L188.13 31.9172C187.177 30.2551 185.878 28.9551 184.238 28.026L183.992 28.461ZM187.697 32.166L187.265 32.4179C188.123 33.8896 188.562 35.6327 188.562 37.665H189.062H189.562C189.562 35.4853 189.09 33.5624 188.128 31.9141L187.697 32.166ZM189.062 37.665H188.562C188.562 39.6971 188.123 41.4547 187.263 42.9542L187.697 43.203L188.13 43.4518C189.09 41.7793 189.562 39.8449 189.562 37.665H189.062ZM187.697 43.203L187.263 42.9542C186.397 44.4641 185.226 45.6341 183.745 46.473L183.992 46.908L184.238 47.343C185.878 46.4139 187.177 45.1139 188.13 43.4518L187.697 43.203ZM183.992 46.908L183.745 46.473C182.27 47.3091 180.563 47.734 178.61 47.734V48.234V48.734C180.712 48.734 182.593 48.2749 184.238 47.343L183.992 46.908ZM167.651 55.566H168.151V27.33H167.651H167.151V55.566H167.651ZM167.651 27.33V27.83H171.239V27.33V26.83H167.651V27.33ZM171.239 27.33H170.739V32.907H171.239H171.739V27.33H171.239ZM171.239 32.907L170.739 32.8826L170.505 37.6796L171.005 37.704L171.504 37.7284L171.738 32.9314L171.239 32.907ZM171.005 37.704L170.506 37.7445L170.896 42.5415L171.395 42.501L171.893 42.4605L171.503 37.6635L171.005 37.704ZM171.395 42.501H170.895V55.566H171.395H171.895V42.501H171.395ZM171.395 55.566V55.066H167.651V55.566V56.066H171.395V55.566ZM178.298 44.958V45.458C179.702 45.458 180.972 45.1405 182.096 44.4945L181.847 44.061L181.597 43.6275C180.641 44.1775 179.546 44.458 178.298 44.458V44.958ZM181.847 44.061L182.091 44.4971C183.241 43.8523 184.139 42.9387 184.781 41.7662L184.343 41.526L183.904 41.2858C183.35 42.2973 182.585 43.0737 181.602 43.6249L181.847 44.061ZM184.343 41.526L184.779 41.7697C185.45 40.5675 185.779 39.1944 185.779 37.665H185.279H184.779C184.779 39.0476 184.483 40.2485 183.906 41.2823L184.343 41.526ZM185.279 37.665H185.779C185.779 36.112 185.451 34.747 184.774 33.5904L184.343 33.843L183.911 34.0956C184.482 35.071 184.779 36.254 184.779 37.665H185.279ZM184.343 33.843L184.781 33.6028C184.139 32.4303 183.241 31.5167 182.091 30.8719L181.847 31.308L181.602 31.7441C182.585 32.2953 183.35 33.0717 183.904 34.0832L184.343 33.843ZM181.847 31.308L182.096 30.8745C180.972 30.2285 179.702 29.911 178.298 29.911V30.411V30.911C179.546 30.911 180.641 31.1915 181.597 31.7415L181.847 31.308ZM178.298 30.411V29.911C176.918 29.911 175.649 30.2293 174.504 30.8719L174.749 31.308L174.993 31.7441C175.98 31.1907 177.078 30.911 178.298 30.911V30.411ZM174.749 31.308L174.499 30.8745C173.379 31.519 172.484 32.4297 171.818 33.5949L172.253 33.843L172.687 34.0911C173.269 33.0723 174.039 32.293 174.998 31.7415L174.749 31.308ZM172.253 33.843L171.816 33.5984C171.169 34.7534 170.856 36.1154 170.856 37.665H171.356H171.856C171.856 36.2506 172.141 35.0646 172.689 34.0876L172.253 33.843ZM171.356 37.665H170.856C170.856 39.191 171.169 40.5611 171.812 41.7618L172.253 41.526L172.693 41.2902C172.14 40.2548 171.856 39.051 171.856 37.665H171.356ZM172.253 41.526L171.818 41.7741C172.484 42.9393 173.379 43.85 174.499 44.4945L174.749 44.061L174.998 43.6275C174.039 43.076 173.269 42.2967 172.687 41.2779L172.253 41.526ZM174.749 44.061L174.504 44.4971C175.649 45.1397 176.918 45.458 178.298 45.458V44.958V44.458C177.078 44.458 175.98 44.1783 174.993 43.6249L174.749 44.061ZM206.875 48H206.375V48.5H206.875V48ZM206.875 43.632H207.375V43.5733L207.362 43.5162L206.875 43.632ZM206.68 42.813H206.18V42.8717L206.194 42.9288L206.68 42.813ZM205.276 31.698L204.928 32.0566L204.933 32.0617L204.938 32.0666L205.276 31.698ZM197.554 30.996L197.712 31.4704L197.722 31.4671L197.554 30.996ZM194.59 32.595L194.153 32.8378L194.447 33.3674L194.911 32.9781L194.59 32.595ZM193.03 29.787L192.717 29.3975L192.388 29.6616L192.593 30.0298L193.03 29.787ZM196.852 27.837L196.995 28.3162L197 28.3145L196.852 27.837ZM210.424 48V48.5H210.924V48H210.424ZM196.033 47.454L195.826 47.9092L195.83 47.9109L196.033 47.454ZM193.381 45.309L192.965 45.5864L192.969 45.5918L193.381 45.309ZM193.225 39.108L192.796 38.8507L192.791 38.8599L193.225 39.108ZM195.838 36.924L195.634 36.4675L195.63 36.4692L195.838 36.924ZM207.304 36.105H207.804V35.605H207.304V36.105ZM207.304 38.796V39.296H207.804V38.796H207.304ZM197.125 39.732L196.779 39.3713V39.3713L197.125 39.732ZM197.359 44.451L197.053 44.8464L197.061 44.8526L197.359 44.451ZM204.379 44.412L204.127 43.9805L204.122 43.9833L204.379 44.412ZM206.68 41.682L207.161 41.5437L206.752 40.1254L206.214 41.4998L206.68 41.682ZM207.421 44.256L207.885 44.4434L207.949 44.2835L207.902 44.1177L207.421 44.256ZM204.808 47.181L205.053 47.6168L205.06 47.6129L204.808 47.181ZM206.875 48H207.375V43.632H206.875H206.375V48H206.875ZM206.875 43.632L207.362 43.5162L207.167 42.6972L206.68 42.813L206.194 42.9288L206.389 43.7478L206.875 43.632ZM206.68 42.813H207.18V35.364H206.68H206.18V42.813H206.68ZM206.68 35.364H207.18C207.18 33.6752 206.678 32.3047 205.614 31.3294L205.276 31.698L204.938 32.0666C205.746 32.8073 206.18 33.8808 206.18 35.364H206.68ZM205.276 31.698L205.625 31.3394C204.586 30.3306 203.059 29.872 201.142 29.872V30.372V30.872C202.917 30.872 204.146 31.2974 204.928 32.0566L205.276 31.698ZM201.142 30.372V29.872C199.862 29.872 198.61 30.0901 197.387 30.5249L197.554 30.996L197.722 31.4671C198.839 31.0699 199.978 30.872 201.142 30.872V30.372ZM197.554 30.996L197.396 30.5217C196.176 30.9282 195.131 31.4892 194.269 32.2119L194.59 32.595L194.911 32.9781C195.662 32.3488 196.592 31.8438 197.712 31.4703L197.554 30.996ZM194.59 32.595L195.027 32.3522L193.467 29.5442L193.03 29.787L192.593 30.0298L194.153 32.8378L194.59 32.595ZM193.03 29.787L193.344 30.1765C194.353 29.3641 195.567 28.742 196.995 28.3161L196.852 27.837L196.709 27.3579C195.173 27.816 193.839 28.4939 192.717 29.3975L193.03 29.787ZM196.852 27.837L197 28.3145C198.459 27.862 199.981 27.635 201.571 27.635V27.135V26.635C199.885 26.635 198.262 26.876 196.704 27.3595L196.852 27.837ZM201.571 27.135V27.635C204.328 27.635 206.376 28.3049 207.789 29.574L208.123 29.202L208.457 28.83C206.802 27.3431 204.482 26.635 201.571 26.635V27.135ZM208.123 29.202L207.789 29.574C209.182 30.8256 209.924 32.7727 209.924 35.52H210.424H210.924C210.924 32.5993 210.132 30.3344 208.457 28.83L208.123 29.202ZM210.424 35.52H209.924V48H210.424H210.924V35.52H210.424ZM210.424 48V47.5H206.875V48V48.5H210.424V48ZM200.089 48.234V47.734C198.611 47.734 197.331 47.4836 196.236 46.9971L196.033 47.454L195.83 47.9109C197.075 48.4644 198.499 48.734 200.089 48.734V48.234ZM196.033 47.454L196.24 46.9988C195.167 46.5112 194.359 45.8511 193.793 45.0262L193.381 45.309L192.969 45.5918C193.651 46.5869 194.611 47.3568 195.826 47.9092L196.033 47.454ZM193.381 45.309L193.797 45.0317C193.23 44.1812 192.945 43.2255 192.945 42.15H192.445H191.945C191.945 43.4145 192.284 44.5648 192.965 45.5863L193.381 45.309ZM192.445 42.15H192.945C192.945 41.113 193.185 40.1855 193.659 39.3561L193.225 39.108L192.791 38.8599C192.225 39.8505 191.945 40.951 191.945 42.15H192.445ZM193.225 39.108L193.654 39.3652C194.137 38.5607 194.92 37.893 196.046 37.3788L195.838 36.924L195.63 36.4692C194.365 37.047 193.406 37.8353 192.796 38.8508L193.225 39.108ZM195.838 36.924L196.042 37.3805C197.175 36.8744 198.735 36.605 200.752 36.605V36.105V35.605C198.662 35.605 196.945 35.8816 195.634 36.4675L195.838 36.924ZM200.752 36.105V36.605H207.304V36.105V35.605H200.752V36.105ZM207.304 36.105H206.804V38.796H207.304H207.804V36.105H207.304ZM207.304 38.796V38.296H200.908V38.796V39.296H207.304V38.796ZM200.908 38.796V38.296C199.948 38.296 199.121 38.3757 198.438 38.5446C197.758 38.7129 197.189 38.9777 196.779 39.3713L197.125 39.732L197.471 40.0927C197.711 39.8623 198.098 39.6591 198.678 39.5154C199.257 39.3723 199.996 39.296 200.908 39.296V38.796ZM197.125 39.732L196.779 39.3713C196.033 40.0875 195.65 40.9709 195.65 41.994H196.15H196.65C196.65 41.2491 196.917 40.6245 197.471 40.0927L197.125 39.732ZM196.15 41.994H195.65C195.65 43.1636 196.125 44.1283 197.053 44.8464L197.359 44.451L197.665 44.0556C196.981 43.5257 196.65 42.8524 196.65 41.994H196.15ZM197.359 44.451L197.061 44.8526C197.983 45.5365 199.22 45.848 200.713 45.848V45.348V44.848C199.346 44.848 198.347 44.5615 197.657 44.0494L197.359 44.451ZM200.713 45.348V45.848C202.193 45.848 203.507 45.5183 204.636 44.8407L204.379 44.412L204.122 43.9833C203.171 44.5537 202.041 44.848 200.713 44.848V45.348ZM204.379 44.412L204.632 44.8435C205.799 44.1603 206.639 43.1604 207.146 41.8642L206.68 41.682L206.214 41.4998C205.786 42.5956 205.091 43.4157 204.127 43.9805L204.379 44.412ZM206.68 41.682L206.2 41.8203L206.941 44.3943L207.421 44.256L207.902 44.1177L207.161 41.5437L206.68 41.682ZM207.421 44.256L206.958 44.0686C206.509 45.1779 205.718 46.0712 204.556 46.7491L204.808 47.181L205.06 47.6129C206.394 46.8348 207.345 45.7781 207.885 44.4434L207.421 44.256ZM204.808 47.181L204.563 46.7452C203.41 47.3936 201.928 47.734 200.089 47.734V48.234V48.734C202.046 48.734 203.71 48.3724 205.053 47.6168L204.808 47.181ZM214.983 55.293L215.153 54.8226L215.141 54.8187L214.983 55.293ZM212.565 53.889L212.13 53.6416L211.934 53.9869L212.226 54.2564L212.565 53.889ZM214.164 51.081L214.508 50.7185L214.045 50.2787L213.729 50.8336L214.164 51.081ZM215.88 52.212L216.072 51.7505V51.7505L215.88 52.212ZM220.131 51.9L219.823 51.5062V51.5062L220.131 51.9ZM221.808 49.404L221.352 49.198L221.349 49.2046L221.808 49.404ZM223.095 46.557L222.711 46.2369L222.667 46.2891L222.639 46.351L223.095 46.557ZM223.485 46.089L223.869 46.4091L223.915 46.3537L223.944 46.2875L223.485 46.089ZM231.597 27.33V26.83H231.268L231.138 27.1315L231.597 27.33ZM235.263 27.33L235.72 27.5317L236.03 26.83H235.263V27.33ZM225.24 50.067L224.782 49.8652L224.777 49.877L225.24 50.067ZM223.212 53.499L222.841 53.1632L222.836 53.1697L223.212 53.499ZM220.794 55.254L220.615 54.7868L220.603 54.7917L220.794 55.254ZM222.783 48.663L222.326 48.8653L222.647 49.5922L223.163 48.9876L222.783 48.663ZM213.345 27.33V26.83H212.577L212.888 27.5323L213.345 27.33ZM217.245 27.33L217.703 27.13L217.572 26.83H217.245V27.33ZM225.279 45.738L225.659 46.0626L225.862 45.8246L225.737 45.538L225.279 45.738ZM217.869 55.8V55.3C216.939 55.3 216.035 55.1412 215.153 54.8227L214.983 55.293L214.813 55.7633C215.803 56.1208 216.823 56.3 217.869 56.3V55.8ZM214.983 55.293L215.141 54.8187C214.267 54.5274 213.524 54.0941 212.904 53.5216L212.565 53.889L212.226 54.2564C212.957 54.9319 213.826 55.4346 214.825 55.7673L214.983 55.293ZM212.565 53.889L212.999 54.1364L214.598 51.3284L214.164 51.081L213.729 50.8336L212.13 53.6416L212.565 53.889ZM214.164 51.081L213.819 51.4435C214.381 51.9769 215.004 52.3887 215.688 52.6735L215.88 52.212L216.072 51.7505C215.508 51.5153 214.987 51.1731 214.508 50.7185L214.164 51.081ZM215.88 52.212L215.688 52.6735C216.375 52.9599 217.103 53.102 217.869 53.102V52.602V52.102C217.23 52.102 216.633 51.9841 216.072 51.7505L215.88 52.212ZM217.869 52.602V53.102C218.868 53.102 219.737 52.8435 220.439 52.2938L220.131 51.9L219.823 51.5062C219.329 51.8925 218.69 52.102 217.869 52.102V52.602ZM220.131 51.9L220.439 52.2938C221.134 51.7499 221.734 50.828 222.266 49.6034L221.808 49.404L221.349 49.2046C220.842 50.372 220.324 51.1141 219.823 51.5062L220.131 51.9ZM221.808 49.404L222.263 49.61L223.55 46.763L223.095 46.557L222.639 46.351L221.352 49.198L221.808 49.404ZM223.095 46.557L223.479 46.8771L223.869 46.4091L223.485 46.089L223.101 45.7689L222.711 46.2369L223.095 46.557ZM223.485 46.089L223.944 46.2875L232.056 27.5285L231.597 27.33L231.138 27.1315L223.026 45.8905L223.485 46.089ZM231.597 27.33V27.83H235.263V27.33V26.83H231.597V27.33ZM235.263 27.33L234.805 27.1283L224.782 49.8653L225.24 50.067L225.697 50.2687L235.72 27.5317L235.263 27.33ZM225.24 50.067L224.777 49.877C224.193 51.2993 223.544 52.3876 222.841 53.1632L223.212 53.499L223.582 53.8348C224.387 52.9464 225.091 51.7467 225.702 50.257L225.24 50.067ZM223.212 53.499L222.836 53.1697C222.152 53.9507 221.411 54.4826 220.615 54.787L220.794 55.254L220.972 55.721C221.944 55.3494 222.815 54.7113 223.588 53.8283L223.212 53.499ZM220.794 55.254L220.603 54.7917C219.786 55.1281 218.877 55.3 217.869 55.3V55.8V56.3C218.993 56.3 220.033 56.1079 220.984 55.7163L220.794 55.254ZM222.783 48.663L223.24 48.4607L213.802 27.1277L213.345 27.33L212.888 27.5323L222.326 48.8653L222.783 48.663ZM213.345 27.33V27.83H217.245V27.33V26.83H213.345V27.33ZM217.245 27.33L216.787 27.53L224.821 45.938L225.279 45.738L225.737 45.538L217.703 27.13L217.245 27.33ZM225.279 45.738L224.899 45.4134L222.403 48.3384L222.783 48.663L223.163 48.9876L225.659 46.0626L225.279 45.738Z" fill="white" mask="url(#path-4-outside-1_161_2092)"/>
</g>
<defs>
<filter id="filter0_dddd_161_2092" x="-12.2514" y="-10.2514" width="224.113" height="222.423" filterUnits="userSpaceOnUse" color-interpolation-filters="sRGB">
<feFlood flood-opacity="0" result="BackgroundImageFix"/>
<feColorMatrix in="SourceAlpha" type="matrix" values="0 0 0 0 0 0 0 0 0 0 0 0 0 0 0 0 0 0 127 0" result="hardAlpha"/>
<feOffset dx="5.91448" dy="5.91448"/>
<feGaussianBlur stdDeviation="9.08295"/>
<feColorMatrix type="matrix" values="0 0 0 0 0.380392 0 0 0 0 0.380392 0 0 0 0 0.380392 0 0 0 0.05 0"/>
<feBlend mode="normal" in2="BackgroundImageFix" result="effect1_dropShadow_161_2092"/>
<feColorMatrix in="SourceAlpha" type="matrix" values="0 0 0 0 0 0 0 0 0 0 0 0 0 0 0 0 0 0 127 0" result="hardAlpha"/>
<feOffset dx="23.6579" dy="23.2354"/>
<feGaussianBlur stdDeviation="16.6873"/>
<feColorMatrix type="matrix" values="0 0 0 0 0.380392 0 0 0 0 0.380392 0 0 0 0 0.380392 0 0 0 0.04 0"/>
<feBlend mode="normal" in2="effect1_dropShadow_161_2092" result="effect2_dropShadow_161_2092"/>
<feColorMatrix in="SourceAlpha" type="matrix" values="0 0 0 0 0 0 0 0 0 0 0 0 0 0 0 0 0 0 127 0" result="hardAlpha"/>
<feOffset dx="53.2303" dy="52.3854"/>
<feGaussianBlur stdDeviation="22.3905"/>
<feColorMatrix type="matrix" values="0 0 0 0 0.380392 0 0 0 0 0.380392 0 0 0 0 0.380392 0 0 0 0.02 0"/>
<feBlend mode="normal" in2="effect2_dropShadow_161_2092" result="effect3_dropShadow_161_2092"/>
<feColorMatrix in="SourceAlpha" type="matrix" values="0 0 0 0 0 0 0 0 0 0 0 0 0 0 0 0 0 0 127 0" result="hardAlpha"/>
<feOffset dx="94.6316" dy="92.9418"/>
<feGaussianBlur stdDeviation="26.6151"/>
<feColorMatrix type="matrix" values="0 0 0 0 0.380392 0 0 0 0 0.380392 0 0 0 0 0.380392 0 0 0 0.01 0"/>
<feBlend mode="normal" in2="effect3_dropShadow_161_2092" result="effect4_dropShadow_161_2092"/>
<feBlend mode="normal" in="SourceGraphic" in2="effect4_dropShadow_161_2092" result="shape"/>
</filter>
<filter id="filter1_i_161_2092" x="-4.03529" y="2" width="68.0353" height="76.1059" filterUnits="userSpaceOnUse" color-interpolation-filters="sRGB">
<feFlood flood-opacity="0" result="BackgroundImageFix"/>
<feBlend mode="normal" in="SourceGraphic" in2="BackgroundImageFix" result="shape"/>
<feColorMatrix in="SourceAlpha" type="matrix" values="0 0 0 0 0 0 0 0 0 0 0 0 0 0 0 0 0 0 127 0" result="hardAlpha"/>
<feOffset dx="-4.03529" dy="12.1059"/>
<feGaussianBlur stdDeviation="6.05294"/>
<feComposite in2="hardAlpha" operator="arithmetic" k2="-1" k3="1"/>
<feColorMatrix type="matrix" values="0 0 0 0 1 0 0 0 0 1 0 0 0 0 1 0 0 0 0.04 0"/>
<feBlend mode="normal" in2="shape" result="effect1_innerShadow_161_2092"/>
</filter>
<radialGradient id="paint0_radial_161_2092" cx="0" cy="0" r="1" gradientUnits="userSpaceOnUse" gradientTransform="translate(33.8135 35.1449) rotate(61.8349) scale(38.2467)">
<stop stop-color="#000F24"/>
<stop offset="1" stop-color="#000F24"/>
</radialGradient>
<linearGradient id="paint1_linear_161_2092" x1="27.7951" y1="20.0933" x2="38.3624" y2="45.5355" gradientUnits="userSpaceOnUse">
<stop offset="0.104657" stop-color="#55C2FF"/>
<stop offset="0.25" stop-color="#A5D4FF"/>
<stop offset="0.5" stop-color="#55C2FF"/>
<stop offset="0.6877" stop-color="#A5D4FF"/>
<stop offset="1" stop-color="#55C2FF"/>
</linearGradient>
<linearGradient id="paint2_linear_161_2092" x1="30.5475" y1="27.69" x2="42.4349" y2="51.6125" gradientUnits="userSpaceOnUse">
<stop offset="0.104657" stop-color="#55C2FF"/>
<stop offset="0.25" stop-color="#A5D4FF"/>
<stop offset="0.5" stop-color="#55C2FF"/>
<stop offset="0.6877" stop-color="#A5D4FF"/>
<stop offset="1" stop-color="#55C2FF"/>
</linearGradient>
<clipPath id="clip0_161_2092">
<rect width="240" height="68" fill="white"/>
</clipPath>
</defs>
</svg>
