<svg width="167" height="128" viewBox="0 0 167 128" fill="none" xmlns="http://www.w3.org/2000/svg">
<g clip-path="url(#clip0_182_2176)">
<g clip-path="url(#clip1_182_2176)">
<g filter="url(#filter0_dddd_182_2176)">
<path d="M96.8013 22.7416L98.8541 19.1783C99.0461 18.845 98.8055 18.4287 98.4209 18.4287H78.3635C78.1849 18.4287 78.0198 18.524 77.9305 18.6787L67.2381 37.202C67.1488 37.3568 67.1489 37.5475 67.2383 37.7022L68.4267 39.7581L69.326 41.3138C69.5187 41.6471 70.0001 41.6467 70.1922 41.313L80.5966 23.2426C80.6858 23.0876 80.851 22.992 81.0299 22.992H96.368C96.5468 22.992 96.712 22.8966 96.8013 22.7416Z" fill="white"/>
<path d="M82.7032 26.2745L80.6348 29.8411C80.4419 30.1737 80.681 30.5905 81.0655 30.5919L89.928 30.6244C90.3135 30.6259 90.5525 31.0447 90.3575 31.3774L88.2662 34.9439C88.1765 35.0969 88.0123 35.191 87.8349 35.191H77.8521C77.674 35.191 77.5093 35.2858 77.4198 35.4398L71.9949 44.7779C71.905 44.9326 71.9046 45.1235 71.9939 45.2785L74.0827 48.9073C74.2749 49.2412 74.7567 49.2415 74.9492 48.9077L80.0569 40.0531C80.1462 39.8983 80.3113 39.8029 80.49 39.8029H90.4989C90.6774 39.8029 90.8424 39.7078 90.9317 39.5533L98.3221 26.7757C98.5149 26.4424 98.2744 26.0254 97.8893 26.0254H83.1357C82.9574 26.0254 82.7927 26.1203 82.7032 26.2745Z" fill="white"/>
</g>
</g>
<mask id="path-3-outside-1_182_2176" maskUnits="userSpaceOnUse" x="3" y="77" width="161" height="40" fill="black">
<rect fill="white" x="3" y="77" width="161" height="40"/>
<path d="M7.605 93.609H21.684V96.963H7.605V93.609ZM7.995 108H4.095V80.7H23.361V84.093H7.995V108ZM40.3741 108V103.632L40.1791 102.813V95.364C40.1791 93.778 39.7111 92.556 38.7751 91.698C37.8651 90.814 36.4871 90.372 34.6411 90.372C33.4191 90.372 32.2231 90.58 31.0531 90.996C29.8831 91.386 28.8951 91.919 28.0891 92.595L26.5291 89.787C27.5951 88.929 28.8691 88.279 30.3511 87.837C31.8591 87.369 33.4321 87.135 35.0701 87.135C37.9041 87.135 40.0881 87.824 41.6221 89.202C43.1561 90.58 43.9231 92.686 43.9231 95.52V108H40.3741ZM33.5881 108.234C32.0541 108.234 30.7021 107.974 29.5321 107.454C28.3881 106.934 27.5041 106.219 26.8801 105.309C26.2561 104.373 25.9441 103.32 25.9441 102.15C25.9441 101.032 26.2041 100.018 26.7241 99.108C27.2701 98.198 28.1411 97.47 29.3371 96.924C30.5591 96.378 32.1971 96.105 34.2511 96.105H40.8031V98.796H34.4071C32.5351 98.796 31.2741 99.108 30.6241 99.732C29.9741 100.356 29.6491 101.11 29.6491 101.994C29.6491 103.008 30.0521 103.827 30.8581 104.451C31.6641 105.049 32.7821 105.348 34.2121 105.348C35.6161 105.348 36.8381 105.036 37.8781 104.412C38.9441 103.788 39.7111 102.878 40.1791 101.682L40.9201 104.256C40.4261 105.478 39.5551 106.453 38.3071 107.181C37.0591 107.883 35.4861 108.234 33.5881 108.234ZM59.8607 108.234C57.7547 108.234 55.8697 107.779 54.2057 106.869C52.5677 105.959 51.2807 104.711 50.3447 103.125C49.4087 101.539 48.9407 99.719 48.9407 97.665C48.9407 95.611 49.4087 93.791 50.3447 92.205C51.2807 90.619 52.5677 89.384 54.2057 88.5C55.8697 87.59 57.7547 87.135 59.8607 87.135C61.7327 87.135 63.3967 87.512 64.8527 88.266C66.3347 88.994 67.4787 90.086 68.2847 91.542L65.4377 93.375C64.7617 92.361 63.9297 91.62 62.9417 91.152C61.9797 90.658 60.9397 90.411 59.8217 90.411C58.4697 90.411 57.2607 90.71 56.1947 91.308C55.1287 91.906 54.2837 92.751 53.6597 93.843C53.0357 94.909 52.7237 96.183 52.7237 97.665C52.7237 99.147 53.0357 100.434 53.6597 101.526C54.2837 102.618 55.1287 103.463 56.1947 104.061C57.2607 104.659 58.4697 104.958 59.8217 104.958C60.9397 104.958 61.9797 104.724 62.9417 104.256C63.9297 103.762 64.7617 103.008 65.4377 101.994L68.2847 103.788C67.4787 105.218 66.3347 106.323 64.8527 107.103C63.3967 107.857 61.7327 108.234 59.8607 108.234ZM72.8654 108V87.33H76.6094V108H72.8654ZM74.7374 83.352C74.0094 83.352 73.3984 83.118 72.9044 82.65C72.4364 82.182 72.2024 81.61 72.2024 80.934C72.2024 80.232 72.4364 79.647 72.9044 79.179C73.3984 78.711 74.0094 78.477 74.7374 78.477C75.4654 78.477 76.0634 78.711 76.5314 79.179C77.0254 79.621 77.2724 80.18 77.2724 80.856C77.2724 81.558 77.0384 82.156 76.5704 82.65C76.1024 83.118 75.4914 83.352 74.7374 83.352ZM83.758 108V79.062H87.502V108H83.758ZM105.61 108.234C103.894 108.234 102.321 107.844 100.891 107.064C99.4866 106.258 98.3556 105.075 97.4976 103.515C96.6656 101.955 96.2496 100.005 96.2496 97.665C96.2496 95.325 96.6526 93.375 97.4586 91.815C98.2906 90.255 99.4086 89.085 100.813 88.305C102.243 87.525 103.842 87.135 105.61 87.135C107.638 87.135 109.432 87.577 110.992 88.461C112.552 89.345 113.787 90.58 114.697 92.166C115.607 93.726 116.062 95.559 116.062 97.665C116.062 99.771 115.607 101.617 114.697 103.203C113.787 104.789 112.552 106.024 110.992 106.908C109.432 107.792 107.638 108.234 105.61 108.234ZM94.6506 115.566V87.33H98.2386V92.907L98.0046 97.704L98.3946 102.501V115.566H94.6506ZM105.298 104.958C106.624 104.958 107.807 104.659 108.847 104.061C109.913 103.463 110.745 102.618 111.343 101.526C111.967 100.408 112.279 99.121 112.279 97.665C112.279 96.183 111.967 94.909 111.343 93.843C110.745 92.751 109.913 91.906 108.847 91.308C107.807 90.71 106.624 90.411 105.298 90.411C103.998 90.411 102.815 90.71 101.749 91.308C100.709 91.906 99.8766 92.751 99.2526 93.843C98.6546 94.909 98.3556 96.183 98.3556 97.665C98.3556 99.121 98.6546 100.408 99.2526 101.526C99.8766 102.618 100.709 103.463 101.749 104.061C102.815 104.659 103.998 104.958 105.298 104.958ZM133.875 108V103.632L133.68 102.813V95.364C133.68 93.778 133.212 92.556 132.276 91.698C131.366 90.814 129.988 90.372 128.142 90.372C126.92 90.372 125.724 90.58 124.554 90.996C123.384 91.386 122.396 91.919 121.59 92.595L120.03 89.787C121.096 88.929 122.37 88.279 123.852 87.837C125.36 87.369 126.933 87.135 128.571 87.135C131.405 87.135 133.589 87.824 135.123 89.202C136.657 90.58 137.424 92.686 137.424 95.52V108H133.875ZM127.089 108.234C125.555 108.234 124.203 107.974 123.033 107.454C121.889 106.934 121.005 106.219 120.381 105.309C119.757 104.373 119.445 103.32 119.445 102.15C119.445 101.032 119.705 100.018 120.225 99.108C120.771 98.198 121.642 97.47 122.838 96.924C124.06 96.378 125.698 96.105 127.752 96.105H134.304V98.796H127.908C126.036 98.796 124.775 99.108 124.125 99.732C123.475 100.356 123.15 101.11 123.15 101.994C123.15 103.008 123.553 103.827 124.359 104.451C125.165 105.049 126.283 105.348 127.713 105.348C129.117 105.348 130.339 105.036 131.379 104.412C132.445 103.788 133.212 102.878 133.68 101.682L134.421 104.256C133.927 105.478 133.056 106.453 131.808 107.181C130.56 107.883 128.987 108.234 127.089 108.234ZM144.869 115.8C143.881 115.8 142.919 115.631 141.983 115.293C141.047 114.981 140.241 114.513 139.565 113.889L141.164 111.081C141.684 111.575 142.256 111.952 142.88 112.212C143.504 112.472 144.167 112.602 144.869 112.602C145.779 112.602 146.533 112.368 147.131 111.9C147.729 111.432 148.288 110.6 148.808 109.404L150.095 106.557L150.485 106.089L158.597 87.33H162.263L152.24 110.067C151.642 111.523 150.966 112.667 150.212 113.499C149.484 114.331 148.678 114.916 147.794 115.254C146.91 115.618 145.935 115.8 144.869 115.8ZM149.783 108.663L140.345 87.33H144.245L152.279 105.738L149.783 108.663Z"/>
</mask>
<path d="M7.605 93.609H21.684V96.963H7.605V93.609ZM7.995 108H4.095V80.7H23.361V84.093H7.995V108ZM40.3741 108V103.632L40.1791 102.813V95.364C40.1791 93.778 39.7111 92.556 38.7751 91.698C37.8651 90.814 36.4871 90.372 34.6411 90.372C33.4191 90.372 32.2231 90.58 31.0531 90.996C29.8831 91.386 28.8951 91.919 28.0891 92.595L26.5291 89.787C27.5951 88.929 28.8691 88.279 30.3511 87.837C31.8591 87.369 33.4321 87.135 35.0701 87.135C37.9041 87.135 40.0881 87.824 41.6221 89.202C43.1561 90.58 43.9231 92.686 43.9231 95.52V108H40.3741ZM33.5881 108.234C32.0541 108.234 30.7021 107.974 29.5321 107.454C28.3881 106.934 27.5041 106.219 26.8801 105.309C26.2561 104.373 25.9441 103.32 25.9441 102.15C25.9441 101.032 26.2041 100.018 26.7241 99.108C27.2701 98.198 28.1411 97.47 29.3371 96.924C30.5591 96.378 32.1971 96.105 34.2511 96.105H40.8031V98.796H34.4071C32.5351 98.796 31.2741 99.108 30.6241 99.732C29.9741 100.356 29.6491 101.11 29.6491 101.994C29.6491 103.008 30.0521 103.827 30.8581 104.451C31.6641 105.049 32.7821 105.348 34.2121 105.348C35.6161 105.348 36.8381 105.036 37.8781 104.412C38.9441 103.788 39.7111 102.878 40.1791 101.682L40.9201 104.256C40.4261 105.478 39.5551 106.453 38.3071 107.181C37.0591 107.883 35.4861 108.234 33.5881 108.234ZM59.8607 108.234C57.7547 108.234 55.8697 107.779 54.2057 106.869C52.5677 105.959 51.2807 104.711 50.3447 103.125C49.4087 101.539 48.9407 99.719 48.9407 97.665C48.9407 95.611 49.4087 93.791 50.3447 92.205C51.2807 90.619 52.5677 89.384 54.2057 88.5C55.8697 87.59 57.7547 87.135 59.8607 87.135C61.7327 87.135 63.3967 87.512 64.8527 88.266C66.3347 88.994 67.4787 90.086 68.2847 91.542L65.4377 93.375C64.7617 92.361 63.9297 91.62 62.9417 91.152C61.9797 90.658 60.9397 90.411 59.8217 90.411C58.4697 90.411 57.2607 90.71 56.1947 91.308C55.1287 91.906 54.2837 92.751 53.6597 93.843C53.0357 94.909 52.7237 96.183 52.7237 97.665C52.7237 99.147 53.0357 100.434 53.6597 101.526C54.2837 102.618 55.1287 103.463 56.1947 104.061C57.2607 104.659 58.4697 104.958 59.8217 104.958C60.9397 104.958 61.9797 104.724 62.9417 104.256C63.9297 103.762 64.7617 103.008 65.4377 101.994L68.2847 103.788C67.4787 105.218 66.3347 106.323 64.8527 107.103C63.3967 107.857 61.7327 108.234 59.8607 108.234ZM72.8654 108V87.33H76.6094V108H72.8654ZM74.7374 83.352C74.0094 83.352 73.3984 83.118 72.9044 82.65C72.4364 82.182 72.2024 81.61 72.2024 80.934C72.2024 80.232 72.4364 79.647 72.9044 79.179C73.3984 78.711 74.0094 78.477 74.7374 78.477C75.4654 78.477 76.0634 78.711 76.5314 79.179C77.0254 79.621 77.2724 80.18 77.2724 80.856C77.2724 81.558 77.0384 82.156 76.5704 82.65C76.1024 83.118 75.4914 83.352 74.7374 83.352ZM83.758 108V79.062H87.502V108H83.758ZM105.61 108.234C103.894 108.234 102.321 107.844 100.891 107.064C99.4866 106.258 98.3556 105.075 97.4976 103.515C96.6656 101.955 96.2496 100.005 96.2496 97.665C96.2496 95.325 96.6526 93.375 97.4586 91.815C98.2906 90.255 99.4086 89.085 100.813 88.305C102.243 87.525 103.842 87.135 105.61 87.135C107.638 87.135 109.432 87.577 110.992 88.461C112.552 89.345 113.787 90.58 114.697 92.166C115.607 93.726 116.062 95.559 116.062 97.665C116.062 99.771 115.607 101.617 114.697 103.203C113.787 104.789 112.552 106.024 110.992 106.908C109.432 107.792 107.638 108.234 105.61 108.234ZM94.6506 115.566V87.33H98.2386V92.907L98.0046 97.704L98.3946 102.501V115.566H94.6506ZM105.298 104.958C106.624 104.958 107.807 104.659 108.847 104.061C109.913 103.463 110.745 102.618 111.343 101.526C111.967 100.408 112.279 99.121 112.279 97.665C112.279 96.183 111.967 94.909 111.343 93.843C110.745 92.751 109.913 91.906 108.847 91.308C107.807 90.71 106.624 90.411 105.298 90.411C103.998 90.411 102.815 90.71 101.749 91.308C100.709 91.906 99.8766 92.751 99.2526 93.843C98.6546 94.909 98.3556 96.183 98.3556 97.665C98.3556 99.121 98.6546 100.408 99.2526 101.526C99.8766 102.618 100.709 103.463 101.749 104.061C102.815 104.659 103.998 104.958 105.298 104.958ZM133.875 108V103.632L133.68 102.813V95.364C133.68 93.778 133.212 92.556 132.276 91.698C131.366 90.814 129.988 90.372 128.142 90.372C126.92 90.372 125.724 90.58 124.554 90.996C123.384 91.386 122.396 91.919 121.59 92.595L120.03 89.787C121.096 88.929 122.37 88.279 123.852 87.837C125.36 87.369 126.933 87.135 128.571 87.135C131.405 87.135 133.589 87.824 135.123 89.202C136.657 90.58 137.424 92.686 137.424 95.52V108H133.875ZM127.089 108.234C125.555 108.234 124.203 107.974 123.033 107.454C121.889 106.934 121.005 106.219 120.381 105.309C119.757 104.373 119.445 103.32 119.445 102.15C119.445 101.032 119.705 100.018 120.225 99.108C120.771 98.198 121.642 97.47 122.838 96.924C124.06 96.378 125.698 96.105 127.752 96.105H134.304V98.796H127.908C126.036 98.796 124.775 99.108 124.125 99.732C123.475 100.356 123.15 101.11 123.15 101.994C123.15 103.008 123.553 103.827 124.359 104.451C125.165 105.049 126.283 105.348 127.713 105.348C129.117 105.348 130.339 105.036 131.379 104.412C132.445 103.788 133.212 102.878 133.68 101.682L134.421 104.256C133.927 105.478 133.056 106.453 131.808 107.181C130.56 107.883 128.987 108.234 127.089 108.234ZM144.869 115.8C143.881 115.8 142.919 115.631 141.983 115.293C141.047 114.981 140.241 114.513 139.565 113.889L141.164 111.081C141.684 111.575 142.256 111.952 142.88 112.212C143.504 112.472 144.167 112.602 144.869 112.602C145.779 112.602 146.533 112.368 147.131 111.9C147.729 111.432 148.288 110.6 148.808 109.404L150.095 106.557L150.485 106.089L158.597 87.33H162.263L152.24 110.067C151.642 111.523 150.966 112.667 150.212 113.499C149.484 114.331 148.678 114.916 147.794 115.254C146.91 115.618 145.935 115.8 144.869 115.8ZM149.783 108.663L140.345 87.33H144.245L152.279 105.738L149.783 108.663Z" fill="white"/>
<path d="M7.605 93.609V93.109H7.105V93.609H7.605ZM21.684 93.609H22.184V93.109H21.684V93.609ZM21.684 96.963V97.463H22.184V96.963H21.684ZM7.605 96.963H7.105V97.463H7.605V96.963ZM7.995 108V108.5H8.495V108H7.995ZM4.095 108H3.595V108.5H4.095V108ZM4.095 80.7V80.2H3.595V80.7H4.095ZM23.361 80.7H23.861V80.2H23.361V80.7ZM23.361 84.093V84.593H23.861V84.093H23.361ZM7.995 84.093V83.593H7.495V84.093H7.995ZM7.605 93.609V94.109H21.684V93.609V93.109H7.605V93.609ZM21.684 93.609H21.184V96.963H21.684H22.184V93.609H21.684ZM21.684 96.963V96.463H7.605V96.963V97.463H21.684V96.963ZM7.605 96.963H8.105V93.609H7.605H7.105V96.963H7.605ZM7.995 108V107.5H4.095V108V108.5H7.995V108ZM4.095 108H4.595V80.7H4.095H3.595V108H4.095ZM4.095 80.7V81.2H23.361V80.7V80.2H4.095V80.7ZM23.361 80.7H22.861V84.093H23.361H23.861V80.7H23.361ZM23.361 84.093V83.593H7.995V84.093V84.593H23.361V84.093ZM7.995 84.093H7.495V108H7.995H8.495V84.093H7.995ZM40.3741 108H39.8741V108.5H40.3741V108ZM40.3741 103.632H40.8741V103.573L40.8605 103.516L40.3741 103.632ZM40.1791 102.813H39.6791V102.872L39.6927 102.929L40.1791 102.813ZM38.7751 91.698L38.4268 92.0566L38.4319 92.0617L38.4373 92.0666L38.7751 91.698ZM31.0531 90.996L31.2113 91.4704L31.2206 91.4671L31.0531 90.996ZM28.0891 92.595L27.6521 92.8378L27.9463 93.3674L28.4104 92.9781L28.0891 92.595ZM26.5291 89.787L26.2156 89.3975L25.8875 89.6616L26.0921 90.0298L26.5291 89.787ZM30.3511 87.837L30.4941 88.3162L30.4993 88.3145L30.3511 87.837ZM43.9231 108V108.5H44.4231V108H43.9231ZM29.5321 107.454L29.3252 107.909L29.3291 107.911L29.5321 107.454ZM26.8801 105.309L26.4641 105.586L26.4678 105.592L26.8801 105.309ZM26.7241 99.108L26.2953 98.8507L26.29 98.8599L26.7241 99.108ZM29.3371 96.924L29.1332 96.4675L29.1295 96.4692L29.3371 96.924ZM40.8031 96.105H41.3031V95.605H40.8031V96.105ZM40.8031 98.796V99.296H41.3031V98.796H40.8031ZM30.6241 99.732L30.2779 99.3713V99.3713L30.6241 99.732ZM30.8581 104.451L30.552 104.846L30.5602 104.853L30.8581 104.451ZM37.8781 104.412L37.6255 103.98L37.6209 103.983L37.8781 104.412ZM40.1791 101.682L40.6596 101.544L40.2513 100.125L39.7135 101.5L40.1791 101.682ZM40.9201 104.256L41.3837 104.443L41.4483 104.283L41.4006 104.118L40.9201 104.256ZM38.3071 107.181L38.5523 107.617L38.5591 107.613L38.3071 107.181ZM40.3741 108H40.8741V103.632H40.3741H39.8741V108H40.3741ZM40.3741 103.632L40.8605 103.516L40.6655 102.697L40.1791 102.813L39.6927 102.929L39.8877 103.748L40.3741 103.632ZM40.1791 102.813H40.6791V95.364H40.1791H39.6791V102.813H40.1791ZM40.1791 95.364H40.6791C40.6791 93.6752 40.177 92.3047 39.113 91.3294L38.7751 91.698L38.4373 92.0666C39.2453 92.8073 39.6791 93.8808 39.6791 95.364H40.1791ZM38.7751 91.698L39.1235 91.3394C38.0851 90.3306 36.5583 89.872 34.6411 89.872V90.372V90.872C36.416 90.872 37.6452 91.2974 38.4268 92.0566L38.7751 91.698ZM34.6411 90.372V89.872C33.3611 89.872 32.1085 90.0901 30.8856 90.5249L31.0531 90.996L31.2206 91.4671C32.3378 91.0699 33.4771 90.872 34.6411 90.872V90.372ZM31.0531 90.996L30.895 90.5217C29.6755 90.9282 28.6296 91.4892 27.7678 92.2119L28.0891 92.595L28.4104 92.9781C29.1607 92.3488 30.0908 91.8438 31.2113 91.4703L31.0531 90.996ZM28.0891 92.595L28.5262 92.3522L26.9662 89.5442L26.5291 89.787L26.0921 90.0298L27.6521 92.8378L28.0891 92.595ZM26.5291 89.787L26.8426 90.1765C27.852 89.3641 29.0661 88.742 30.494 88.3161L30.3511 87.837L30.2082 87.3579C28.6721 87.816 27.3383 88.4939 26.2156 89.3975L26.5291 89.787ZM30.3511 87.837L30.4993 88.3145C31.9576 87.862 33.4805 87.635 35.0701 87.635V87.135V86.635C33.3838 86.635 31.7607 86.876 30.2029 87.3595L30.3511 87.837ZM35.0701 87.135V87.635C37.8272 87.635 39.8753 88.3049 41.288 89.574L41.6221 89.202L41.9563 88.83C40.301 87.3431 37.9811 86.635 35.0701 86.635V87.135ZM41.6221 89.202L41.288 89.574C42.6814 90.8256 43.4231 92.7727 43.4231 95.52H43.9231H44.4231C44.4231 92.5993 43.6309 90.3344 41.9563 88.83L41.6221 89.202ZM43.9231 95.52H43.4231V108H43.9231H44.4231V95.52H43.9231ZM43.9231 108V107.5H40.3741V108V108.5H43.9231V108ZM33.5881 108.234V107.734C32.1105 107.734 30.8299 107.484 29.7352 106.997L29.5321 107.454L29.3291 107.911C30.5744 108.464 31.9978 108.734 33.5881 108.734V108.234ZM29.5321 107.454L29.739 106.999C28.6662 106.511 27.8582 105.851 27.2925 105.026L26.8801 105.309L26.4678 105.592C27.1501 106.587 28.1101 107.357 29.3252 107.909L29.5321 107.454ZM26.8801 105.309L27.2962 105.032C26.7292 104.181 26.4441 103.225 26.4441 102.15H25.9441H25.4441C25.4441 103.415 25.7831 104.565 26.4641 105.586L26.8801 105.309ZM25.9441 102.15H26.4441C26.4441 101.113 26.6843 100.185 27.1583 99.3561L26.7241 99.108L26.29 98.8599C25.724 99.8505 25.4441 100.951 25.4441 102.15H25.9441ZM26.7241 99.108L27.1529 99.3652C27.6356 98.5607 28.4186 97.893 29.5448 97.3788L29.3371 96.924L29.1295 96.4692C27.8637 97.047 26.9047 97.8353 26.2954 98.8508L26.7241 99.108ZM29.3371 96.924L29.5411 97.3805C30.6739 96.8744 32.2336 96.605 34.2511 96.605V96.105V95.605C32.1607 95.605 30.4444 95.8816 29.1332 96.4675L29.3371 96.924ZM34.2511 96.105V96.605H40.8031V96.105V95.605H34.2511V96.105ZM40.8031 96.105H40.3031V98.796H40.8031H41.3031V96.105H40.8031ZM40.8031 98.796V98.296H34.4071V98.796V99.296H40.8031V98.796ZM34.4071 98.796V98.296C33.4468 98.296 32.6201 98.3757 31.9373 98.5446C31.2571 98.7129 30.6879 98.9777 30.2779 99.3713L30.6241 99.732L30.9704 100.093C31.2104 99.8623 31.5967 99.6591 32.1775 99.5154C32.7556 99.3723 33.4955 99.296 34.4071 99.296V98.796ZM30.6241 99.732L30.2779 99.3713C29.5318 100.088 29.1491 100.971 29.1491 101.994H29.6491H30.1491C30.1491 101.249 30.4165 100.624 30.9704 100.093L30.6241 99.732ZM29.6491 101.994H29.1491C29.1491 103.164 29.6245 104.128 30.5521 104.846L30.8581 104.451L31.1642 104.056C30.4798 103.526 30.1491 102.852 30.1491 101.994H29.6491ZM30.8581 104.451L30.5602 104.853C31.4821 105.537 32.719 105.848 34.2121 105.848V105.348V104.848C32.8453 104.848 31.8462 104.561 31.1561 104.049L30.8581 104.451ZM34.2121 105.348V105.848C35.6923 105.848 37.0061 105.518 38.1354 104.841L37.8781 104.412L37.6209 103.983C36.6702 104.554 35.54 104.848 34.2121 104.848V105.348ZM37.8781 104.412L38.1307 104.844C39.2978 104.16 40.1376 103.16 40.6448 101.864L40.1791 101.682L39.7135 101.5C39.2847 102.596 38.5905 103.416 37.6255 103.98L37.8781 104.412ZM40.1791 101.682L39.6987 101.82L40.4397 104.394L40.9201 104.256L41.4006 104.118L40.6596 101.544L40.1791 101.682ZM40.9201 104.256L40.4566 104.069C40.0081 105.178 39.2173 106.071 38.0552 106.749L38.3071 107.181L38.5591 107.613C39.893 106.835 40.8441 105.778 41.3837 104.443L40.9201 104.256ZM38.3071 107.181L38.062 106.745C36.9093 107.394 35.4273 107.734 33.5881 107.734V108.234V108.734C35.545 108.734 37.209 108.372 38.5523 107.617L38.3071 107.181ZM54.2057 106.869L53.9629 107.306L53.9658 107.308L54.2057 106.869ZM50.3447 103.125L49.9141 103.379V103.379L50.3447 103.125ZM50.3447 92.205L49.9141 91.9509V91.9509L50.3447 92.205ZM54.2057 88.5L54.4432 88.94L54.4456 88.9387L54.2057 88.5ZM64.8527 88.266L64.6228 88.7101L64.6323 88.7148L64.8527 88.266ZM68.2847 91.542L68.5554 91.9624L68.9488 91.7091L68.7222 91.2998L68.2847 91.542ZM65.4377 93.375L65.0217 93.6524L65.2947 94.0618L65.7084 93.7954L65.4377 93.375ZM62.9417 91.152L62.7133 91.5968L62.7205 91.6004L62.7277 91.6039L62.9417 91.152ZM53.6597 93.843L54.0913 94.0956L54.0939 94.0911L53.6597 93.843ZM53.6597 101.526L53.2256 101.774V101.774L53.6597 101.526ZM62.9417 104.256L63.1605 104.706L63.1653 104.703L62.9417 104.256ZM65.4377 101.994L65.7043 101.571L65.292 101.311L65.0217 101.717L65.4377 101.994ZM68.2847 103.788L68.7203 104.034L68.9541 103.619L68.5513 103.365L68.2847 103.788ZM64.8527 107.103L65.0827 107.547L65.0856 107.545L64.8527 107.103ZM59.8607 108.234V107.734C57.8291 107.734 56.0282 107.296 54.4456 106.43L54.2057 106.869L53.9658 107.308C55.7113 108.262 57.6803 108.734 59.8607 108.734V108.234ZM54.2057 106.869L54.4486 106.432C52.8869 105.564 51.6653 104.379 50.7753 102.871L50.3447 103.125L49.9141 103.379C50.8962 105.043 52.2486 106.354 53.9629 107.306L54.2057 106.869ZM50.3447 103.125L50.7753 102.871C49.8899 101.37 49.4407 99.6402 49.4407 97.665H48.9407H48.4407C48.4407 99.7978 48.9276 101.708 49.9141 103.379L50.3447 103.125ZM48.9407 97.665H49.4407C49.4407 95.6898 49.8899 93.9595 50.7753 92.4591L50.3447 92.205L49.9141 91.9509C48.9276 93.6225 48.4407 95.5322 48.4407 97.665H48.9407ZM50.3447 92.205L50.7753 92.4591C51.6646 90.9524 52.8844 89.7813 54.4432 88.94L54.2057 88.5L53.9683 88.06C52.2511 88.9867 50.8969 90.2856 49.9141 91.9509L50.3447 92.205ZM54.2057 88.5L54.4456 88.9387C56.0282 88.0732 57.8291 87.635 59.8607 87.635V87.135V86.635C57.6803 86.635 55.7113 87.1068 53.9658 88.0613L54.2057 88.5ZM59.8607 87.135V87.635C61.6641 87.635 63.2474 87.9977 64.6228 88.71L64.8527 88.266L65.0827 87.822C63.5461 87.0263 61.8013 86.635 59.8607 86.635V87.135ZM64.8527 88.266L64.6323 88.7148C66.0218 89.3973 67.0904 90.4168 67.8473 91.7842L68.2847 91.542L68.7222 91.2998C67.8671 89.7552 66.6477 88.5907 65.0732 87.8172L64.8527 88.266ZM68.2847 91.542L68.0141 91.1216L65.1671 92.9546L65.4377 93.375L65.7084 93.7954L68.5554 91.9624L68.2847 91.542ZM65.4377 93.375L65.8538 93.0976C65.1334 92.0171 64.2348 91.2113 63.1558 90.7001L62.9417 91.152L62.7277 91.6039C63.6247 92.0287 64.3901 92.7049 65.0217 93.6524L65.4377 93.375ZM62.9417 91.152L63.1701 90.7072C62.135 90.1757 61.0164 89.911 59.8217 89.911V90.411V90.911C60.8631 90.911 61.8244 91.1403 62.7133 91.5968L62.9417 91.152ZM59.8217 90.411V89.911C58.3934 89.911 57.0985 90.2277 55.9501 90.8719L56.1947 91.308L56.4394 91.7441C57.4229 91.1923 58.5461 90.911 59.8217 90.911V90.411ZM56.1947 91.308L55.9501 90.8719C54.8027 91.5156 53.8932 92.4266 53.2256 93.5949L53.6597 93.843L54.0939 94.0911C54.6743 93.0754 55.4548 92.2964 56.4394 91.7441L56.1947 91.308ZM53.6597 93.843L53.2282 93.5904C52.5512 94.747 52.2237 96.112 52.2237 97.665H52.7237H53.2237C53.2237 96.254 53.5203 95.071 54.0912 94.0956L53.6597 93.843ZM52.7237 97.665H52.2237C52.2237 99.2184 52.5513 100.594 53.2256 101.774L53.6597 101.526L54.0939 101.278C53.5202 100.274 53.2237 99.0756 53.2237 97.665H52.7237ZM53.6597 101.526L53.2256 101.774C53.8932 102.942 54.8027 103.853 55.9501 104.497L56.1947 104.061L56.4394 103.625C55.4548 103.073 54.6743 102.294 54.0939 101.278L53.6597 101.526ZM56.1947 104.061L55.9501 104.497C57.0985 105.141 58.3934 105.458 59.8217 105.458V104.958V104.458C58.5461 104.458 57.4229 104.177 56.4394 103.625L56.1947 104.061ZM59.8217 104.958V105.458C61.012 105.458 62.1272 105.208 63.1605 104.706L62.9417 104.256L62.723 103.806C61.8322 104.24 60.8675 104.458 59.8217 104.458V104.958ZM62.9417 104.256L63.1653 104.703C64.239 104.166 65.1346 103.35 65.8538 102.271L65.4377 101.994L65.0217 101.717C64.3889 102.666 63.6205 103.358 62.7181 103.809L62.9417 104.256ZM65.4377 101.994L65.1712 102.417L68.0182 104.211L68.2847 103.788L68.5513 103.365L65.7043 101.571L65.4377 101.994ZM68.2847 103.788L67.8492 103.542C67.0914 104.887 66.0186 105.924 64.6199 106.661L64.8527 107.103L65.0856 107.545C66.6509 106.722 67.8661 105.549 68.7203 104.034L68.2847 103.788ZM64.8527 107.103L64.6228 106.659C63.2474 107.371 61.6641 107.734 59.8607 107.734V108.234V108.734C61.8013 108.734 63.5461 108.343 65.0827 107.547L64.8527 107.103ZM72.8654 108H72.3654V108.5H72.8654V108ZM72.8654 87.33V86.83H72.3654V87.33H72.8654ZM76.6094 87.33H77.1094V86.83H76.6094V87.33ZM76.6094 108V108.5H77.1094V108H76.6094ZM72.9044 82.65L72.5507 83.0037L72.5605 83.013L72.9044 82.65ZM72.9044 79.179L72.5604 78.8159L72.5508 78.8254L72.9044 79.179ZM76.5314 79.179L76.1779 79.5326L76.1877 79.5424L76.198 79.5516L76.5314 79.179ZM76.5704 82.65L76.9241 83.0037L76.9334 82.9939L76.5704 82.65ZM72.8654 108H73.3654V87.33H72.8654H72.3654V108H72.8654ZM72.8654 87.33V87.83H76.6094V87.33V86.83H72.8654V87.33ZM76.6094 87.33H76.1094V108H76.6094H77.1094V87.33H76.6094ZM76.6094 108V107.5H72.8654V108V108.5H76.6094V108ZM74.7374 83.352V82.852C74.1275 82.852 73.6425 82.6605 73.2483 82.287L72.9044 82.65L72.5605 83.013C73.1543 83.5755 73.8913 83.852 74.7374 83.852V83.352ZM72.9044 82.65L73.258 82.2964C72.8859 81.9244 72.7024 81.4806 72.7024 80.934H72.2024H71.7024C71.7024 81.7394 71.9869 82.4396 72.5508 83.0036L72.9044 82.65ZM72.2024 80.934H72.7024C72.7024 80.3557 72.8899 79.9007 73.258 79.5326L72.9044 79.179L72.5508 78.8254C71.983 79.3933 71.7024 80.1083 71.7024 80.934H72.2024ZM72.9044 79.179L73.2483 79.542C73.6425 79.1685 74.1275 78.977 74.7374 78.977V78.477V77.977C73.8913 77.977 73.1543 78.2535 72.5605 78.816L72.9044 79.179ZM74.7374 78.477V78.977C75.3474 78.977 75.8134 79.1681 76.1779 79.5326L76.5314 79.179L76.885 78.8254C76.3134 78.2539 75.5835 77.977 74.7374 77.977V78.477ZM76.5314 79.179L76.198 79.5516C76.5836 79.8966 76.7724 80.319 76.7724 80.856H77.2724H77.7724C77.7724 80.041 77.4672 79.3454 76.8648 78.8064L76.5314 79.179ZM77.2724 80.856H76.7724C76.7724 81.4346 76.5844 81.9082 76.2074 82.3061L76.5704 82.65L76.9334 82.9939C77.4924 82.4038 77.7724 81.6814 77.7724 80.856H77.2724ZM76.5704 82.65L76.2169 82.2964C75.8559 82.6574 75.3789 82.852 74.7374 82.852V83.352V83.852C75.6039 83.852 76.3489 83.5786 76.924 83.0036L76.5704 82.65ZM83.758 108H83.258V108.5H83.758V108ZM83.758 79.062V78.562H83.258V79.062H83.758ZM87.502 79.062H88.002V78.562H87.502V79.062ZM87.502 108V108.5H88.002V108H87.502ZM83.758 108H84.258V79.062H83.758H83.258V108H83.758ZM83.758 79.062V79.562H87.502V79.062V78.562H83.758V79.062ZM87.502 79.062H87.002V108H87.502H88.002V79.062H87.502ZM87.502 108V107.5H83.758V108V108.5H87.502V108ZM100.891 107.064L100.642 107.498L100.651 107.503L100.891 107.064ZM97.4976 103.515L97.0564 103.75L97.0595 103.756L97.4976 103.515ZM97.4586 91.815L97.0173 91.5797L97.0144 91.5855L97.4586 91.815ZM100.813 88.305L100.573 87.866L100.57 87.8679L100.813 88.305ZM110.992 88.461L111.238 88.026V88.026L110.992 88.461ZM114.697 92.166L114.263 92.4148L114.265 92.4179L114.697 92.166ZM114.697 103.203L114.263 102.954V102.954L114.697 103.203ZM110.992 106.908L111.238 107.343V107.343L110.992 106.908ZM94.6506 115.566H94.1506V116.066H94.6506V115.566ZM94.6506 87.33V86.83H94.1506V87.33H94.6506ZM98.2386 87.33H98.7386V86.83H98.2386V87.33ZM98.2386 92.907L98.738 92.9314L98.7386 92.9192V92.907H98.2386ZM98.0046 97.704L97.5052 97.6796L97.5036 97.7121L97.5062 97.7445L98.0046 97.704ZM98.3946 102.501H98.8946V102.481L98.8929 102.46L98.3946 102.501ZM98.3946 115.566V116.066H98.8946V115.566H98.3946ZM108.847 104.061L108.602 103.625L108.597 103.628L108.847 104.061ZM111.343 101.526L110.906 101.282L110.904 101.286L111.343 101.526ZM111.343 93.843L110.904 94.0832L110.907 94.0894L110.911 94.0956L111.343 93.843ZM108.847 91.308L108.597 91.7415L108.602 91.7441L108.847 91.308ZM101.749 91.308L101.504 90.8719L101.499 90.8745L101.749 91.308ZM99.2526 93.843L98.8184 93.5949L98.8165 93.5984L99.2526 93.843ZM99.2526 101.526L98.8115 101.762L98.8184 101.774L99.2526 101.526ZM101.749 104.061L101.499 104.494L101.504 104.497L101.749 104.061ZM105.61 108.234V107.734C103.973 107.734 102.483 107.363 101.13 106.625L100.891 107.064L100.651 107.503C102.159 108.325 103.815 108.734 105.61 108.734V108.234ZM100.891 107.064L101.139 106.63C99.8228 105.875 98.754 104.762 97.9357 103.274L97.4976 103.515L97.0595 103.756C97.9571 105.388 99.1503 106.641 100.642 107.498L100.891 107.064ZM97.4976 103.515L97.9387 103.28C97.1558 101.812 96.7496 99.9485 96.7496 97.665H96.2496H95.7496C95.7496 100.062 96.1753 102.098 97.0564 103.75L97.4976 103.515ZM96.2496 97.665H96.7496C96.7496 95.3794 97.1436 93.514 97.9028 92.0445L97.4586 91.815L97.0144 91.5855C96.1616 93.236 95.7496 95.2706 95.7496 97.665H96.2496ZM97.4586 91.815L97.8997 92.0503C98.6912 90.5664 99.7439 89.4707 101.055 88.7421L100.813 88.305L100.57 87.8679C99.0732 88.6993 97.89 89.9436 97.0174 91.5797L97.4586 91.815ZM100.813 88.305L101.052 88.7439C102.402 88.0074 103.918 87.635 105.61 87.635V87.135V86.635C103.765 86.635 102.083 87.0426 100.573 87.8661L100.813 88.305ZM105.61 87.135V87.635C107.563 87.635 109.27 88.0599 110.745 88.896L110.992 88.461L111.238 88.026C109.593 87.094 107.712 86.635 105.61 86.635V87.135ZM110.992 88.461L110.745 88.896C112.226 89.7349 113.397 90.9049 114.263 92.4148L114.697 92.166L115.13 91.9172C114.177 90.2551 112.878 88.9551 111.238 88.026L110.992 88.461ZM114.697 92.166L114.265 92.4179C115.123 93.8896 115.562 95.6327 115.562 97.665H116.062H116.562C116.562 95.4853 116.09 93.5624 115.128 91.9141L114.697 92.166ZM116.062 97.665H115.562C115.562 99.6971 115.123 101.455 114.263 102.954L114.697 103.203L115.13 103.452C116.09 101.779 116.562 99.8449 116.562 97.665H116.062ZM114.697 103.203L114.263 102.954C113.397 104.464 112.226 105.634 110.745 106.473L110.992 106.908L111.238 107.343C112.878 106.414 114.177 105.114 115.13 103.452L114.697 103.203ZM110.992 106.908L110.745 106.473C109.27 107.309 107.563 107.734 105.61 107.734V108.234V108.734C107.712 108.734 109.593 108.275 111.238 107.343L110.992 106.908ZM94.6506 115.566H95.1506V87.33H94.6506H94.1506V115.566H94.6506ZM94.6506 87.33V87.83H98.2386V87.33V86.83H94.6506V87.33ZM98.2386 87.33H97.7386V92.907H98.2386H98.7386V87.33H98.2386ZM98.2386 92.907L97.7392 92.8826L97.5052 97.6796L98.0046 97.704L98.504 97.7284L98.738 92.9314L98.2386 92.907ZM98.0046 97.704L97.5062 97.7445L97.8962 102.542L98.3946 102.501L98.8929 102.46L98.5029 97.6635L98.0046 97.704ZM98.3946 102.501H97.8946V115.566H98.3946H98.8946V102.501H98.3946ZM98.3946 115.566V115.066H94.6506V115.566V116.066H98.3946V115.566ZM105.298 104.958V105.458C106.702 105.458 107.972 105.141 109.096 104.494L108.847 104.061L108.597 103.628C107.641 104.177 106.546 104.458 105.298 104.458V104.958ZM108.847 104.061L109.091 104.497C110.241 103.852 111.139 102.939 111.781 101.766L111.343 101.526L110.904 101.286C110.35 102.297 109.585 103.074 108.602 103.625L108.847 104.061ZM111.343 101.526L111.779 101.77C112.45 100.567 112.779 99.1944 112.779 97.665H112.279H111.779C111.779 99.0476 111.483 100.249 110.906 101.282L111.343 101.526ZM112.279 97.665H112.779C112.779 96.112 112.451 94.747 111.774 93.5904L111.343 93.843L110.911 94.0956C111.482 95.071 111.779 96.254 111.779 97.665H112.279ZM111.343 93.843L111.781 93.6028C111.139 92.4303 110.241 91.5167 109.091 90.8719L108.847 91.308L108.602 91.7441C109.585 92.2953 110.35 93.0717 110.904 94.0832L111.343 93.843ZM108.847 91.308L109.096 90.8745C107.972 90.2285 106.702 89.911 105.298 89.911V90.411V90.911C106.546 90.911 107.641 91.1915 108.597 91.7415L108.847 91.308ZM105.298 90.411V89.911C103.918 89.911 102.649 90.2293 101.504 90.8719L101.749 91.308L101.993 91.7441C102.98 91.1907 104.078 90.911 105.298 90.911V90.411ZM101.749 91.308L101.499 90.8745C100.379 91.519 99.4843 92.4297 98.8184 93.5949L99.2526 93.843L99.6867 94.0911C100.269 93.0723 101.039 92.293 101.998 91.7415L101.749 91.308ZM99.2526 93.843L98.8165 93.5984C98.1685 94.7534 97.8556 96.1154 97.8556 97.665H98.3556H98.8556C98.8556 96.2506 99.1406 95.0646 99.6886 94.0876L99.2526 93.843ZM98.3556 97.665H97.8556C97.8556 99.191 98.1694 100.561 98.8117 101.762L99.2526 101.526L99.6935 101.29C99.1397 100.255 98.8556 99.051 98.8556 97.665H98.3556ZM99.2526 101.526L98.8184 101.774C99.4843 102.939 100.379 103.85 101.499 104.494L101.749 104.061L101.998 103.628C101.039 103.076 100.269 102.297 99.6867 101.278L99.2526 101.526ZM101.749 104.061L101.504 104.497C102.649 105.14 103.918 105.458 105.298 105.458V104.958V104.458C104.078 104.458 102.98 104.178 101.993 103.625L101.749 104.061ZM133.875 108H133.375V108.5H133.875V108ZM133.875 103.632H134.375V103.573L134.362 103.516L133.875 103.632ZM133.68 102.813H133.18V102.872L133.194 102.929L133.68 102.813ZM132.276 91.698L131.928 92.0566L131.933 92.0617L131.938 92.0666L132.276 91.698ZM124.554 90.996L124.712 91.4704L124.722 91.4671L124.554 90.996ZM121.59 92.595L121.153 92.8378L121.447 93.3674L121.911 92.9781L121.59 92.595ZM120.03 89.787L119.717 89.3975L119.388 89.6616L119.593 90.0298L120.03 89.787ZM123.852 87.837L123.995 88.3162L124 88.3145L123.852 87.837ZM137.424 108V108.5H137.924V108H137.424ZM123.033 107.454L122.826 107.909L122.83 107.911L123.033 107.454ZM120.381 105.309L119.965 105.586L119.969 105.592L120.381 105.309ZM120.225 99.108L119.796 98.8507L119.791 98.8599L120.225 99.108ZM122.838 96.924L122.634 96.4675L122.63 96.4692L122.838 96.924ZM134.304 96.105H134.804V95.605H134.304V96.105ZM134.304 98.796V99.296H134.804V98.796H134.304ZM124.125 99.732L123.779 99.3713V99.3713L124.125 99.732ZM124.359 104.451L124.053 104.846L124.061 104.853L124.359 104.451ZM131.379 104.412L131.127 103.98L131.122 103.983L131.379 104.412ZM133.68 101.682L134.161 101.544L133.752 100.125L133.214 101.5L133.68 101.682ZM134.421 104.256L134.885 104.443L134.949 104.283L134.902 104.118L134.421 104.256ZM131.808 107.181L132.053 107.617L132.06 107.613L131.808 107.181ZM133.875 108H134.375V103.632H133.875H133.375V108H133.875ZM133.875 103.632L134.362 103.516L134.167 102.697L133.68 102.813L133.194 102.929L133.389 103.748L133.875 103.632ZM133.68 102.813H134.18V95.364H133.68H133.18V102.813H133.68ZM133.68 95.364H134.18C134.18 93.6752 133.678 92.3047 132.614 91.3294L132.276 91.698L131.938 92.0666C132.746 92.8073 133.18 93.8808 133.18 95.364H133.68ZM132.276 91.698L132.625 91.3394C131.586 90.3306 130.059 89.872 128.142 89.872V90.372V90.872C129.917 90.872 131.146 91.2974 131.928 92.0566L132.276 91.698ZM128.142 90.372V89.872C126.862 89.872 125.61 90.0901 124.387 90.5249L124.554 90.996L124.722 91.4671C125.839 91.0699 126.978 90.872 128.142 90.872V90.372ZM124.554 90.996L124.396 90.5217C123.176 90.9282 122.131 91.4892 121.269 92.2119L121.59 92.595L121.911 92.9781C122.662 92.3488 123.592 91.8438 124.712 91.4703L124.554 90.996ZM121.59 92.595L122.027 92.3522L120.467 89.5442L120.03 89.787L119.593 90.0298L121.153 92.8378L121.59 92.595ZM120.03 89.787L120.344 90.1765C121.353 89.3641 122.567 88.742 123.995 88.3161L123.852 87.837L123.709 87.3579C122.173 87.816 120.839 88.4939 119.717 89.3975L120.03 89.787ZM123.852 87.837L124 88.3145C125.459 87.862 126.981 87.635 128.571 87.635V87.135V86.635C126.885 86.635 125.262 86.876 123.704 87.3595L123.852 87.837ZM128.571 87.135V87.635C131.328 87.635 133.376 88.3049 134.789 89.574L135.123 89.202L135.457 88.83C133.802 87.3431 131.482 86.635 128.571 86.635V87.135ZM135.123 89.202L134.789 89.574C136.182 90.8256 136.924 92.7727 136.924 95.52H137.424H137.924C137.924 92.5993 137.132 90.3344 135.457 88.83L135.123 89.202ZM137.424 95.52H136.924V108H137.424H137.924V95.52H137.424ZM137.424 108V107.5H133.875V108V108.5H137.424V108ZM127.089 108.234V107.734C125.611 107.734 124.331 107.484 123.236 106.997L123.033 107.454L122.83 107.911C124.075 108.464 125.499 108.734 127.089 108.734V108.234ZM123.033 107.454L123.24 106.999C122.167 106.511 121.359 105.851 120.793 105.026L120.381 105.309L119.969 105.592C120.651 106.587 121.611 107.357 122.826 107.909L123.033 107.454ZM120.381 105.309L120.797 105.032C120.23 104.181 119.945 103.225 119.945 102.15H119.445H118.945C118.945 103.415 119.284 104.565 119.965 105.586L120.381 105.309ZM119.445 102.15H119.945C119.945 101.113 120.185 100.185 120.659 99.3561L120.225 99.108L119.791 98.8599C119.225 99.8505 118.945 100.951 118.945 102.15H119.445ZM120.225 99.108L120.654 99.3652C121.137 98.5607 121.92 97.893 123.046 97.3788L122.838 96.924L122.63 96.4692C121.365 97.047 120.406 97.8353 119.796 98.8508L120.225 99.108ZM122.838 96.924L123.042 97.3805C124.175 96.8744 125.735 96.605 127.752 96.605V96.105V95.605C125.662 95.605 123.945 95.8816 122.634 96.4675L122.838 96.924ZM127.752 96.105V96.605H134.304V96.105V95.605H127.752V96.105ZM134.304 96.105H133.804V98.796H134.304H134.804V96.105H134.304ZM134.304 98.796V98.296H127.908V98.796V99.296H134.304V98.796ZM127.908 98.796V98.296C126.948 98.296 126.121 98.3757 125.438 98.5446C124.758 98.7129 124.189 98.9777 123.779 99.3713L124.125 99.732L124.471 100.093C124.711 99.8623 125.098 99.6591 125.678 99.5154C126.257 99.3723 126.996 99.296 127.908 99.296V98.796ZM124.125 99.732L123.779 99.3713C123.033 100.088 122.65 100.971 122.65 101.994H123.15H123.65C123.65 101.249 123.917 100.624 124.471 100.093L124.125 99.732ZM123.15 101.994H122.65C122.65 103.164 123.125 104.128 124.053 104.846L124.359 104.451L124.665 104.056C123.981 103.526 123.65 102.852 123.65 101.994H123.15ZM124.359 104.451L124.061 104.853C124.983 105.537 126.22 105.848 127.713 105.848V105.348V104.848C126.346 104.848 125.347 104.561 124.657 104.049L124.359 104.451ZM127.713 105.348V105.848C129.193 105.848 130.507 105.518 131.636 104.841L131.379 104.412L131.122 103.983C130.171 104.554 129.041 104.848 127.713 104.848V105.348ZM131.379 104.412L131.632 104.844C132.799 104.16 133.639 103.16 134.146 101.864L133.68 101.682L133.214 101.5C132.786 102.596 132.091 103.416 131.127 103.98L131.379 104.412ZM133.68 101.682L133.2 101.82L133.941 104.394L134.421 104.256L134.902 104.118L134.161 101.544L133.68 101.682ZM134.421 104.256L133.958 104.069C133.509 105.178 132.718 106.071 131.556 106.749L131.808 107.181L132.06 107.613C133.394 106.835 134.345 105.778 134.885 104.443L134.421 104.256ZM131.808 107.181L131.563 106.745C130.41 107.394 128.928 107.734 127.089 107.734V108.234V108.734C129.046 108.734 130.71 108.372 132.053 107.617L131.808 107.181ZM141.983 115.293L142.153 114.823L142.141 114.819L141.983 115.293ZM139.565 113.889L139.13 113.642L138.934 113.987L139.226 114.256L139.565 113.889ZM141.164 111.081L141.508 110.719L141.045 110.279L140.729 110.834L141.164 111.081ZM142.88 112.212L143.072 111.75V111.75L142.88 112.212ZM147.131 111.9L146.823 111.506V111.506L147.131 111.9ZM148.808 109.404L148.352 109.198L148.349 109.205L148.808 109.404ZM150.095 106.557L149.711 106.237L149.667 106.289L149.639 106.351L150.095 106.557ZM150.485 106.089L150.869 106.409L150.915 106.354L150.944 106.287L150.485 106.089ZM158.597 87.33V86.83H158.268L158.138 87.1315L158.597 87.33ZM162.263 87.33L162.72 87.5317L163.03 86.83H162.263V87.33ZM152.24 110.067L151.782 109.865L151.777 109.877L152.24 110.067ZM150.212 113.499L149.841 113.163L149.836 113.17L150.212 113.499ZM147.794 115.254L147.615 114.787L147.603 114.792L147.794 115.254ZM149.783 108.663L149.326 108.865L149.647 109.592L150.163 108.988L149.783 108.663ZM140.345 87.33V86.83H139.577L139.888 87.5323L140.345 87.33ZM144.245 87.33L144.703 87.13L144.572 86.83H144.245V87.33ZM152.279 105.738L152.659 106.063L152.862 105.825L152.737 105.538L152.279 105.738ZM144.869 115.8V115.3C143.939 115.3 143.035 115.141 142.153 114.823L141.983 115.293L141.813 115.763C142.803 116.121 143.823 116.3 144.869 116.3V115.8ZM141.983 115.293L142.141 114.819C141.267 114.527 140.524 114.094 139.904 113.522L139.565 113.889L139.226 114.256C139.957 114.932 140.826 115.435 141.825 115.767L141.983 115.293ZM139.565 113.889L139.999 114.136L141.598 111.328L141.164 111.081L140.729 110.834L139.13 113.642L139.565 113.889ZM141.164 111.081L140.819 111.444C141.381 111.977 142.004 112.389 142.688 112.674L142.88 112.212L143.072 111.75C142.508 111.515 141.987 111.173 141.508 110.719L141.164 111.081ZM142.88 112.212L142.688 112.674C143.375 112.96 144.103 113.102 144.869 113.102V112.602V112.102C144.23 112.102 143.633 111.984 143.072 111.75L142.88 112.212ZM144.869 112.602V113.102C145.868 113.102 146.737 112.844 147.439 112.294L147.131 111.9L146.823 111.506C146.329 111.892 145.69 112.102 144.869 112.102V112.602ZM147.131 111.9L147.439 112.294C148.134 111.75 148.734 110.828 149.266 109.603L148.808 109.404L148.349 109.205C147.842 110.372 147.324 111.114 146.823 111.506L147.131 111.9ZM148.808 109.404L149.263 109.61L150.55 106.763L150.095 106.557L149.639 106.351L148.352 109.198L148.808 109.404ZM150.095 106.557L150.479 106.877L150.869 106.409L150.485 106.089L150.101 105.769L149.711 106.237L150.095 106.557ZM150.485 106.089L150.944 106.287L159.056 87.5285L158.597 87.33L158.138 87.1315L150.026 105.891L150.485 106.089ZM158.597 87.33V87.83H162.263V87.33V86.83H158.597V87.33ZM162.263 87.33L161.805 87.1283L151.782 109.865L152.24 110.067L152.697 110.269L162.72 87.5317L162.263 87.33ZM152.24 110.067L151.777 109.877C151.193 111.299 150.544 112.388 149.841 113.163L150.212 113.499L150.582 113.835C151.387 112.946 152.091 111.747 152.702 110.257L152.24 110.067ZM150.212 113.499L149.836 113.17C149.152 113.951 148.411 114.483 147.615 114.787L147.794 115.254L147.972 115.721C148.944 115.349 149.815 114.711 150.588 113.828L150.212 113.499ZM147.794 115.254L147.603 114.792C146.786 115.128 145.877 115.3 144.869 115.3V115.8V116.3C145.993 116.3 147.033 116.108 147.984 115.716L147.794 115.254ZM149.783 108.663L150.24 108.461L140.802 87.1277L140.345 87.33L139.888 87.5323L149.326 108.865L149.783 108.663ZM140.345 87.33V87.83H144.245V87.33V86.83H140.345V87.33ZM144.245 87.33L143.787 87.53L151.821 105.938L152.279 105.738L152.737 105.538L144.703 87.13L144.245 87.33ZM152.279 105.738L151.899 105.413L149.403 108.338L149.783 108.663L150.163 108.988L152.659 106.063L152.279 105.738Z" fill="white" mask="url(#path-3-outside-1_182_2176)"/>
</g>
<defs>
<filter id="filter0_dddd_182_2176" x="54.9205" y="6.1773" width="191.863" height="189.153" filterUnits="userSpaceOnUse" color-interpolation-filters="sRGB">
<feFlood flood-opacity="0" result="BackgroundImageFix"/>
<feColorMatrix in="SourceAlpha" type="matrix" values="0 0 0 0 0 0 0 0 0 0 0 0 0 0 0 0 0 0 127 0" result="hardAlpha"/>
<feOffset dx="5.91448" dy="5.91448"/>
<feGaussianBlur stdDeviation="9.08295"/>
<feColorMatrix type="matrix" values="0 0 0 0 0.380392 0 0 0 0 0.380392 0 0 0 0 0.380392 0 0 0 0.05 0"/>
<feBlend mode="normal" in2="BackgroundImageFix" result="effect1_dropShadow_182_2176"/>
<feColorMatrix in="SourceAlpha" type="matrix" values="0 0 0 0 0 0 0 0 0 0 0 0 0 0 0 0 0 0 127 0" result="hardAlpha"/>
<feOffset dx="23.6579" dy="23.2354"/>
<feGaussianBlur stdDeviation="16.6873"/>
<feColorMatrix type="matrix" values="0 0 0 0 0.380392 0 0 0 0 0.380392 0 0 0 0 0.380392 0 0 0 0.04 0"/>
<feBlend mode="normal" in2="effect1_dropShadow_182_2176" result="effect2_dropShadow_182_2176"/>
<feColorMatrix in="SourceAlpha" type="matrix" values="0 0 0 0 0 0 0 0 0 0 0 0 0 0 0 0 0 0 127 0" result="hardAlpha"/>
<feOffset dx="53.2303" dy="52.3854"/>
<feGaussianBlur stdDeviation="22.3905"/>
<feColorMatrix type="matrix" values="0 0 0 0 0.380392 0 0 0 0 0.380392 0 0 0 0 0.380392 0 0 0 0.02 0"/>
<feBlend mode="normal" in2="effect2_dropShadow_182_2176" result="effect3_dropShadow_182_2176"/>
<feColorMatrix in="SourceAlpha" type="matrix" values="0 0 0 0 0 0 0 0 0 0 0 0 0 0 0 0 0 0 127 0" result="hardAlpha"/>
<feOffset dx="94.6316" dy="92.9418"/>
<feGaussianBlur stdDeviation="26.6151"/>
<feColorMatrix type="matrix" values="0 0 0 0 0.380392 0 0 0 0 0.380392 0 0 0 0 0.380392 0 0 0 0.01 0"/>
<feBlend mode="normal" in2="effect3_dropShadow_182_2176" result="effect4_dropShadow_182_2176"/>
<feBlend mode="normal" in="SourceGraphic" in2="effect4_dropShadow_182_2176" result="shape"/>
</filter>
<clipPath id="clip0_182_2176">
<rect width="167" height="128" fill="white"/>
</clipPath>
<clipPath id="clip1_182_2176">
<rect width="64" height="64" fill="white" transform="translate(51.5)"/>
</clipPath>
</defs>
</svg>
