<svg width="167" height="68" viewBox="0 0 167 68" fill="none" xmlns="http://www.w3.org/2000/svg">
<g clip-path="url(#clip0_178_2155)">
<mask id="path-1-outside-1_178_2155" maskUnits="userSpaceOnUse" x="3" y="17" width="161" height="40" fill="black">
<rect fill="white" x="3" y="17" width="161" height="40"/>
<path d="M7.605 33.609H21.684V36.963H7.605V33.609ZM7.995 48H4.095V20.7H23.361V24.093H7.995V48ZM40.3741 48V43.632L40.1791 42.813V35.364C40.1791 33.778 39.7111 32.556 38.7751 31.698C37.8651 30.814 36.4871 30.372 34.6411 30.372C33.4191 30.372 32.2231 30.58 31.0531 30.996C29.8831 31.386 28.8951 31.919 28.0891 32.595L26.5291 29.787C27.5951 28.929 28.8691 28.279 30.3511 27.837C31.8591 27.369 33.4321 27.135 35.0701 27.135C37.9041 27.135 40.0881 27.824 41.6221 29.202C43.1561 30.58 43.9231 32.686 43.9231 35.52V48H40.3741ZM33.5881 48.234C32.0541 48.234 30.7021 47.974 29.5321 47.454C28.3881 46.934 27.5041 46.219 26.8801 45.309C26.2561 44.373 25.9441 43.32 25.9441 42.15C25.9441 41.032 26.2041 40.018 26.7241 39.108C27.2701 38.198 28.1411 37.47 29.3371 36.924C30.5591 36.378 32.1971 36.105 34.2511 36.105H40.8031V38.796H34.4071C32.5351 38.796 31.2741 39.108 30.6241 39.732C29.9741 40.356 29.6491 41.11 29.6491 41.994C29.6491 43.008 30.0521 43.827 30.8581 44.451C31.6641 45.049 32.7821 45.348 34.2121 45.348C35.6161 45.348 36.8381 45.036 37.8781 44.412C38.9441 43.788 39.7111 42.878 40.1791 41.682L40.9201 44.256C40.4261 45.478 39.5551 46.453 38.3071 47.181C37.0591 47.883 35.4861 48.234 33.5881 48.234ZM59.8607 48.234C57.7547 48.234 55.8697 47.779 54.2057 46.869C52.5677 45.959 51.2807 44.711 50.3447 43.125C49.4087 41.539 48.9407 39.719 48.9407 37.665C48.9407 35.611 49.4087 33.791 50.3447 32.205C51.2807 30.619 52.5677 29.384 54.2057 28.5C55.8697 27.59 57.7547 27.135 59.8607 27.135C61.7327 27.135 63.3967 27.512 64.8527 28.266C66.3347 28.994 67.4787 30.086 68.2847 31.542L65.4377 33.375C64.7617 32.361 63.9297 31.62 62.9417 31.152C61.9797 30.658 60.9397 30.411 59.8217 30.411C58.4697 30.411 57.2607 30.71 56.1947 31.308C55.1287 31.906 54.2837 32.751 53.6597 33.843C53.0357 34.909 52.7237 36.183 52.7237 37.665C52.7237 39.147 53.0357 40.434 53.6597 41.526C54.2837 42.618 55.1287 43.463 56.1947 44.061C57.2607 44.659 58.4697 44.958 59.8217 44.958C60.9397 44.958 61.9797 44.724 62.9417 44.256C63.9297 43.762 64.7617 43.008 65.4377 41.994L68.2847 43.788C67.4787 45.218 66.3347 46.323 64.8527 47.103C63.3967 47.857 61.7327 48.234 59.8607 48.234ZM72.8654 48V27.33H76.6094V48H72.8654ZM74.7374 23.352C74.0094 23.352 73.3984 23.118 72.9044 22.65C72.4364 22.182 72.2024 21.61 72.2024 20.934C72.2024 20.232 72.4364 19.647 72.9044 19.179C73.3984 18.711 74.0094 18.477 74.7374 18.477C75.4654 18.477 76.0634 18.711 76.5314 19.179C77.0254 19.621 77.2724 20.18 77.2724 20.856C77.2724 21.558 77.0384 22.156 76.5704 22.65C76.1024 23.118 75.4914 23.352 74.7374 23.352ZM83.758 48V19.062H87.502V48H83.758ZM105.61 48.234C103.894 48.234 102.321 47.844 100.891 47.064C99.4866 46.258 98.3556 45.075 97.4976 43.515C96.6656 41.955 96.2496 40.005 96.2496 37.665C96.2496 35.325 96.6526 33.375 97.4586 31.815C98.2906 30.255 99.4086 29.085 100.813 28.305C102.243 27.525 103.842 27.135 105.61 27.135C107.638 27.135 109.432 27.577 110.992 28.461C112.552 29.345 113.787 30.58 114.697 32.166C115.607 33.726 116.062 35.559 116.062 37.665C116.062 39.771 115.607 41.617 114.697 43.203C113.787 44.789 112.552 46.024 110.992 46.908C109.432 47.792 107.638 48.234 105.61 48.234ZM94.6506 55.566V27.33H98.2386V32.907L98.0046 37.704L98.3946 42.501V55.566H94.6506ZM105.298 44.958C106.624 44.958 107.807 44.659 108.847 44.061C109.913 43.463 110.745 42.618 111.343 41.526C111.967 40.408 112.279 39.121 112.279 37.665C112.279 36.183 111.967 34.909 111.343 33.843C110.745 32.751 109.913 31.906 108.847 31.308C107.807 30.71 106.624 30.411 105.298 30.411C103.998 30.411 102.815 30.71 101.749 31.308C100.709 31.906 99.8766 32.751 99.2526 33.843C98.6546 34.909 98.3556 36.183 98.3556 37.665C98.3556 39.121 98.6546 40.408 99.2526 41.526C99.8766 42.618 100.709 43.463 101.749 44.061C102.815 44.659 103.998 44.958 105.298 44.958ZM133.875 48V43.632L133.68 42.813V35.364C133.68 33.778 133.212 32.556 132.276 31.698C131.366 30.814 129.988 30.372 128.142 30.372C126.92 30.372 125.724 30.58 124.554 30.996C123.384 31.386 122.396 31.919 121.59 32.595L120.03 29.787C121.096 28.929 122.37 28.279 123.852 27.837C125.36 27.369 126.933 27.135 128.571 27.135C131.405 27.135 133.589 27.824 135.123 29.202C136.657 30.58 137.424 32.686 137.424 35.52V48H133.875ZM127.089 48.234C125.555 48.234 124.203 47.974 123.033 47.454C121.889 46.934 121.005 46.219 120.381 45.309C119.757 44.373 119.445 43.32 119.445 42.15C119.445 41.032 119.705 40.018 120.225 39.108C120.771 38.198 121.642 37.47 122.838 36.924C124.06 36.378 125.698 36.105 127.752 36.105H134.304V38.796H127.908C126.036 38.796 124.775 39.108 124.125 39.732C123.475 40.356 123.15 41.11 123.15 41.994C123.15 43.008 123.553 43.827 124.359 44.451C125.165 45.049 126.283 45.348 127.713 45.348C129.117 45.348 130.339 45.036 131.379 44.412C132.445 43.788 133.212 42.878 133.68 41.682L134.421 44.256C133.927 45.478 133.056 46.453 131.808 47.181C130.56 47.883 128.987 48.234 127.089 48.234ZM144.869 55.8C143.881 55.8 142.919 55.631 141.983 55.293C141.047 54.981 140.241 54.513 139.565 53.889L141.164 51.081C141.684 51.575 142.256 51.952 142.88 52.212C143.504 52.472 144.167 52.602 144.869 52.602C145.779 52.602 146.533 52.368 147.131 51.9C147.729 51.432 148.288 50.6 148.808 49.404L150.095 46.557L150.485 46.089L158.597 27.33H162.263L152.24 50.067C151.642 51.523 150.966 52.667 150.212 53.499C149.484 54.331 148.678 54.916 147.794 55.254C146.91 55.618 145.935 55.8 144.869 55.8ZM149.783 48.663L140.345 27.33H144.245L152.279 45.738L149.783 48.663Z"/>
</mask>
<path d="M7.605 33.609H21.684V36.963H7.605V33.609ZM7.995 48H4.095V20.7H23.361V24.093H7.995V48ZM40.3741 48V43.632L40.1791 42.813V35.364C40.1791 33.778 39.7111 32.556 38.7751 31.698C37.8651 30.814 36.4871 30.372 34.6411 30.372C33.4191 30.372 32.2231 30.58 31.0531 30.996C29.8831 31.386 28.8951 31.919 28.0891 32.595L26.5291 29.787C27.5951 28.929 28.8691 28.279 30.3511 27.837C31.8591 27.369 33.4321 27.135 35.0701 27.135C37.9041 27.135 40.0881 27.824 41.6221 29.202C43.1561 30.58 43.9231 32.686 43.9231 35.52V48H40.3741ZM33.5881 48.234C32.0541 48.234 30.7021 47.974 29.5321 47.454C28.3881 46.934 27.5041 46.219 26.8801 45.309C26.2561 44.373 25.9441 43.32 25.9441 42.15C25.9441 41.032 26.2041 40.018 26.7241 39.108C27.2701 38.198 28.1411 37.47 29.3371 36.924C30.5591 36.378 32.1971 36.105 34.2511 36.105H40.8031V38.796H34.4071C32.5351 38.796 31.2741 39.108 30.6241 39.732C29.9741 40.356 29.6491 41.11 29.6491 41.994C29.6491 43.008 30.0521 43.827 30.8581 44.451C31.6641 45.049 32.7821 45.348 34.2121 45.348C35.6161 45.348 36.8381 45.036 37.8781 44.412C38.9441 43.788 39.7111 42.878 40.1791 41.682L40.9201 44.256C40.4261 45.478 39.5551 46.453 38.3071 47.181C37.0591 47.883 35.4861 48.234 33.5881 48.234ZM59.8607 48.234C57.7547 48.234 55.8697 47.779 54.2057 46.869C52.5677 45.959 51.2807 44.711 50.3447 43.125C49.4087 41.539 48.9407 39.719 48.9407 37.665C48.9407 35.611 49.4087 33.791 50.3447 32.205C51.2807 30.619 52.5677 29.384 54.2057 28.5C55.8697 27.59 57.7547 27.135 59.8607 27.135C61.7327 27.135 63.3967 27.512 64.8527 28.266C66.3347 28.994 67.4787 30.086 68.2847 31.542L65.4377 33.375C64.7617 32.361 63.9297 31.62 62.9417 31.152C61.9797 30.658 60.9397 30.411 59.8217 30.411C58.4697 30.411 57.2607 30.71 56.1947 31.308C55.1287 31.906 54.2837 32.751 53.6597 33.843C53.0357 34.909 52.7237 36.183 52.7237 37.665C52.7237 39.147 53.0357 40.434 53.6597 41.526C54.2837 42.618 55.1287 43.463 56.1947 44.061C57.2607 44.659 58.4697 44.958 59.8217 44.958C60.9397 44.958 61.9797 44.724 62.9417 44.256C63.9297 43.762 64.7617 43.008 65.4377 41.994L68.2847 43.788C67.4787 45.218 66.3347 46.323 64.8527 47.103C63.3967 47.857 61.7327 48.234 59.8607 48.234ZM72.8654 48V27.33H76.6094V48H72.8654ZM74.7374 23.352C74.0094 23.352 73.3984 23.118 72.9044 22.65C72.4364 22.182 72.2024 21.61 72.2024 20.934C72.2024 20.232 72.4364 19.647 72.9044 19.179C73.3984 18.711 74.0094 18.477 74.7374 18.477C75.4654 18.477 76.0634 18.711 76.5314 19.179C77.0254 19.621 77.2724 20.18 77.2724 20.856C77.2724 21.558 77.0384 22.156 76.5704 22.65C76.1024 23.118 75.4914 23.352 74.7374 23.352ZM83.758 48V19.062H87.502V48H83.758ZM105.61 48.234C103.894 48.234 102.321 47.844 100.891 47.064C99.4866 46.258 98.3556 45.075 97.4976 43.515C96.6656 41.955 96.2496 40.005 96.2496 37.665C96.2496 35.325 96.6526 33.375 97.4586 31.815C98.2906 30.255 99.4086 29.085 100.813 28.305C102.243 27.525 103.842 27.135 105.61 27.135C107.638 27.135 109.432 27.577 110.992 28.461C112.552 29.345 113.787 30.58 114.697 32.166C115.607 33.726 116.062 35.559 116.062 37.665C116.062 39.771 115.607 41.617 114.697 43.203C113.787 44.789 112.552 46.024 110.992 46.908C109.432 47.792 107.638 48.234 105.61 48.234ZM94.6506 55.566V27.33H98.2386V32.907L98.0046 37.704L98.3946 42.501V55.566H94.6506ZM105.298 44.958C106.624 44.958 107.807 44.659 108.847 44.061C109.913 43.463 110.745 42.618 111.343 41.526C111.967 40.408 112.279 39.121 112.279 37.665C112.279 36.183 111.967 34.909 111.343 33.843C110.745 32.751 109.913 31.906 108.847 31.308C107.807 30.71 106.624 30.411 105.298 30.411C103.998 30.411 102.815 30.71 101.749 31.308C100.709 31.906 99.8766 32.751 99.2526 33.843C98.6546 34.909 98.3556 36.183 98.3556 37.665C98.3556 39.121 98.6546 40.408 99.2526 41.526C99.8766 42.618 100.709 43.463 101.749 44.061C102.815 44.659 103.998 44.958 105.298 44.958ZM133.875 48V43.632L133.68 42.813V35.364C133.68 33.778 133.212 32.556 132.276 31.698C131.366 30.814 129.988 30.372 128.142 30.372C126.92 30.372 125.724 30.58 124.554 30.996C123.384 31.386 122.396 31.919 121.59 32.595L120.03 29.787C121.096 28.929 122.37 28.279 123.852 27.837C125.36 27.369 126.933 27.135 128.571 27.135C131.405 27.135 133.589 27.824 135.123 29.202C136.657 30.58 137.424 32.686 137.424 35.52V48H133.875ZM127.089 48.234C125.555 48.234 124.203 47.974 123.033 47.454C121.889 46.934 121.005 46.219 120.381 45.309C119.757 44.373 119.445 43.32 119.445 42.15C119.445 41.032 119.705 40.018 120.225 39.108C120.771 38.198 121.642 37.47 122.838 36.924C124.06 36.378 125.698 36.105 127.752 36.105H134.304V38.796H127.908C126.036 38.796 124.775 39.108 124.125 39.732C123.475 40.356 123.15 41.11 123.15 41.994C123.15 43.008 123.553 43.827 124.359 44.451C125.165 45.049 126.283 45.348 127.713 45.348C129.117 45.348 130.339 45.036 131.379 44.412C132.445 43.788 133.212 42.878 133.68 41.682L134.421 44.256C133.927 45.478 133.056 46.453 131.808 47.181C130.56 47.883 128.987 48.234 127.089 48.234ZM144.869 55.8C143.881 55.8 142.919 55.631 141.983 55.293C141.047 54.981 140.241 54.513 139.565 53.889L141.164 51.081C141.684 51.575 142.256 51.952 142.88 52.212C143.504 52.472 144.167 52.602 144.869 52.602C145.779 52.602 146.533 52.368 147.131 51.9C147.729 51.432 148.288 50.6 148.808 49.404L150.095 46.557L150.485 46.089L158.597 27.33H162.263L152.24 50.067C151.642 51.523 150.966 52.667 150.212 53.499C149.484 54.331 148.678 54.916 147.794 55.254C146.91 55.618 145.935 55.8 144.869 55.8ZM149.783 48.663L140.345 27.33H144.245L152.279 45.738L149.783 48.663Z" fill="white"/>
<path d="M7.605 33.609V33.109H7.105V33.609H7.605ZM21.684 33.609H22.184V33.109H21.684V33.609ZM21.684 36.963V37.463H22.184V36.963H21.684ZM7.605 36.963H7.105V37.463H7.605V36.963ZM7.995 48V48.5H8.495V48H7.995ZM4.095 48H3.595V48.5H4.095V48ZM4.095 20.7V20.2H3.595V20.7H4.095ZM23.361 20.7H23.861V20.2H23.361V20.7ZM23.361 24.093V24.593H23.861V24.093H23.361ZM7.995 24.093V23.593H7.495V24.093H7.995ZM7.605 33.609V34.109H21.684V33.609V33.109H7.605V33.609ZM21.684 33.609H21.184V36.963H21.684H22.184V33.609H21.684ZM21.684 36.963V36.463H7.605V36.963V37.463H21.684V36.963ZM7.605 36.963H8.105V33.609H7.605H7.105V36.963H7.605ZM7.995 48V47.5H4.095V48V48.5H7.995V48ZM4.095 48H4.595V20.7H4.095H3.595V48H4.095ZM4.095 20.7V21.2H23.361V20.7V20.2H4.095V20.7ZM23.361 20.7H22.861V24.093H23.361H23.861V20.7H23.361ZM23.361 24.093V23.593H7.995V24.093V24.593H23.361V24.093ZM7.995 24.093H7.495V48H7.995H8.495V24.093H7.995ZM40.3741 48H39.8741V48.5H40.3741V48ZM40.3741 43.632H40.8741V43.5733L40.8605 43.5162L40.3741 43.632ZM40.1791 42.813H39.6791V42.8717L39.6927 42.9288L40.1791 42.813ZM38.7751 31.698L38.4268 32.0566L38.4319 32.0617L38.4373 32.0666L38.7751 31.698ZM31.0531 30.996L31.2113 31.4704L31.2206 31.4671L31.0531 30.996ZM28.0891 32.595L27.6521 32.8378L27.9463 33.3674L28.4104 32.9781L28.0891 32.595ZM26.5291 29.787L26.2156 29.3975L25.8875 29.6616L26.0921 30.0298L26.5291 29.787ZM30.3511 27.837L30.4941 28.3162L30.4993 28.3145L30.3511 27.837ZM43.9231 48V48.5H44.4231V48H43.9231ZM29.5321 47.454L29.3252 47.9092L29.3291 47.9109L29.5321 47.454ZM26.8801 45.309L26.4641 45.5864L26.4678 45.5918L26.8801 45.309ZM26.7241 39.108L26.2953 38.8507L26.29 38.8599L26.7241 39.108ZM29.3371 36.924L29.1332 36.4675L29.1295 36.4692L29.3371 36.924ZM40.8031 36.105H41.3031V35.605H40.8031V36.105ZM40.8031 38.796V39.296H41.3031V38.796H40.8031ZM30.6241 39.732L30.2779 39.3713V39.3713L30.6241 39.732ZM30.8581 44.451L30.552 44.8464L30.5602 44.8526L30.8581 44.451ZM37.8781 44.412L37.6255 43.9805L37.6209 43.9833L37.8781 44.412ZM40.1791 41.682L40.6596 41.5437L40.2513 40.1254L39.7135 41.4998L40.1791 41.682ZM40.9201 44.256L41.3837 44.4434L41.4483 44.2835L41.4006 44.1177L40.9201 44.256ZM38.3071 47.181L38.5523 47.6168L38.5591 47.6129L38.3071 47.181ZM40.3741 48H40.8741V43.632H40.3741H39.8741V48H40.3741ZM40.3741 43.632L40.8605 43.5162L40.6655 42.6972L40.1791 42.813L39.6927 42.9288L39.8877 43.7478L40.3741 43.632ZM40.1791 42.813H40.6791V35.364H40.1791H39.6791V42.813H40.1791ZM40.1791 35.364H40.6791C40.6791 33.6752 40.177 32.3047 39.113 31.3294L38.7751 31.698L38.4373 32.0666C39.2453 32.8073 39.6791 33.8808 39.6791 35.364H40.1791ZM38.7751 31.698L39.1235 31.3394C38.0851 30.3306 36.5583 29.872 34.6411 29.872V30.372V30.872C36.416 30.872 37.6452 31.2974 38.4268 32.0566L38.7751 31.698ZM34.6411 30.372V29.872C33.3611 29.872 32.1085 30.0901 30.8856 30.5249L31.0531 30.996L31.2206 31.4671C32.3378 31.0699 33.4771 30.872 34.6411 30.872V30.372ZM31.0531 30.996L30.895 30.5217C29.6755 30.9282 28.6296 31.4892 27.7678 32.2119L28.0891 32.595L28.4104 32.9781C29.1607 32.3488 30.0908 31.8438 31.2113 31.4703L31.0531 30.996ZM28.0891 32.595L28.5262 32.3522L26.9662 29.5442L26.5291 29.787L26.0921 30.0298L27.6521 32.8378L28.0891 32.595ZM26.5291 29.787L26.8426 30.1765C27.852 29.3641 29.0661 28.742 30.494 28.3161L30.3511 27.837L30.2082 27.3579C28.6721 27.816 27.3383 28.4939 26.2156 29.3975L26.5291 29.787ZM30.3511 27.837L30.4993 28.3145C31.9576 27.862 33.4805 27.635 35.0701 27.635V27.135V26.635C33.3838 26.635 31.7607 26.876 30.2029 27.3595L30.3511 27.837ZM35.0701 27.135V27.635C37.8272 27.635 39.8753 28.3049 41.288 29.574L41.6221 29.202L41.9563 28.83C40.301 27.3431 37.9811 26.635 35.0701 26.635V27.135ZM41.6221 29.202L41.288 29.574C42.6814 30.8256 43.4231 32.7727 43.4231 35.52H43.9231H44.4231C44.4231 32.5993 43.6309 30.3344 41.9563 28.83L41.6221 29.202ZM43.9231 35.52H43.4231V48H43.9231H44.4231V35.52H43.9231ZM43.9231 48V47.5H40.3741V48V48.5H43.9231V48ZM33.5881 48.234V47.734C32.1105 47.734 30.8299 47.4836 29.7352 46.9971L29.5321 47.454L29.3291 47.9109C30.5744 48.4644 31.9978 48.734 33.5881 48.734V48.234ZM29.5321 47.454L29.739 46.9988C28.6662 46.5112 27.8582 45.8511 27.2925 45.0262L26.8801 45.309L26.4678 45.5918C27.1501 46.5869 28.1101 47.3568 29.3252 47.9092L29.5321 47.454ZM26.8801 45.309L27.2962 45.0317C26.7292 44.1812 26.4441 43.2255 26.4441 42.15H25.9441H25.4441C25.4441 43.4145 25.7831 44.5648 26.4641 45.5863L26.8801 45.309ZM25.9441 42.15H26.4441C26.4441 41.113 26.6843 40.1855 27.1583 39.3561L26.7241 39.108L26.29 38.8599C25.724 39.8505 25.4441 40.951 25.4441 42.15H25.9441ZM26.7241 39.108L27.1529 39.3652C27.6356 38.5607 28.4186 37.893 29.5448 37.3788L29.3371 36.924L29.1295 36.4692C27.8637 37.047 26.9047 37.8353 26.2954 38.8508L26.7241 39.108ZM29.3371 36.924L29.5411 37.3805C30.6739 36.8744 32.2336 36.605 34.2511 36.605V36.105V35.605C32.1607 35.605 30.4444 35.8816 29.1332 36.4675L29.3371 36.924ZM34.2511 36.105V36.605H40.8031V36.105V35.605H34.2511V36.105ZM40.8031 36.105H40.3031V38.796H40.8031H41.3031V36.105H40.8031ZM40.8031 38.796V38.296H34.4071V38.796V39.296H40.8031V38.796ZM34.4071 38.796V38.296C33.4468 38.296 32.6201 38.3757 31.9373 38.5446C31.2571 38.7129 30.6879 38.9777 30.2779 39.3713L30.6241 39.732L30.9704 40.0927C31.2104 39.8623 31.5967 39.6591 32.1775 39.5154C32.7556 39.3723 33.4955 39.296 34.4071 39.296V38.796ZM30.6241 39.732L30.2779 39.3713C29.5318 40.0875 29.1491 40.9709 29.1491 41.994H29.6491H30.1491C30.1491 41.2491 30.4165 40.6245 30.9704 40.0927L30.6241 39.732ZM29.6491 41.994H29.1491C29.1491 43.1636 29.6245 44.1283 30.5521 44.8464L30.8581 44.451L31.1642 44.0556C30.4798 43.5257 30.1491 42.8524 30.1491 41.994H29.6491ZM30.8581 44.451L30.5602 44.8526C31.4821 45.5365 32.719 45.848 34.2121 45.848V45.348V44.848C32.8453 44.848 31.8462 44.5615 31.1561 44.0494L30.8581 44.451ZM34.2121 45.348V45.848C35.6923 45.848 37.0061 45.5183 38.1354 44.8407L37.8781 44.412L37.6209 43.9833C36.6702 44.5537 35.54 44.848 34.2121 44.848V45.348ZM37.8781 44.412L38.1307 44.8435C39.2978 44.1603 40.1376 43.1604 40.6448 41.8642L40.1791 41.682L39.7135 41.4998C39.2847 42.5956 38.5905 43.4157 37.6255 43.9805L37.8781 44.412ZM40.1791 41.682L39.6987 41.8203L40.4397 44.3943L40.9201 44.256L41.4006 44.1177L40.6596 41.5437L40.1791 41.682ZM40.9201 44.256L40.4566 44.0686C40.0081 45.1779 39.2173 46.0712 38.0552 46.7491L38.3071 47.181L38.5591 47.6129C39.893 46.8348 40.8441 45.7781 41.3837 44.4434L40.9201 44.256ZM38.3071 47.181L38.062 46.7452C36.9093 47.3936 35.4273 47.734 33.5881 47.734V48.234V48.734C35.545 48.734 37.209 48.3724 38.5523 47.6168L38.3071 47.181ZM54.2057 46.869L53.9629 47.3061L53.9658 47.3077L54.2057 46.869ZM50.3447 43.125L49.9141 43.3791V43.3791L50.3447 43.125ZM50.3447 32.205L49.9141 31.9509V31.9509L50.3447 32.205ZM54.2057 28.5L54.4432 28.94L54.4456 28.9387L54.2057 28.5ZM64.8527 28.266L64.6228 28.7101L64.6323 28.7148L64.8527 28.266ZM68.2847 31.542L68.5554 31.9624L68.9488 31.7091L68.7222 31.2998L68.2847 31.542ZM65.4377 33.375L65.0217 33.6524L65.2947 34.0618L65.7084 33.7954L65.4377 33.375ZM62.9417 31.152L62.7133 31.5968L62.7205 31.6004L62.7277 31.6039L62.9417 31.152ZM53.6597 33.843L54.0913 34.0956L54.0939 34.0911L53.6597 33.843ZM53.6597 41.526L53.2256 41.7741V41.7741L53.6597 41.526ZM62.9417 44.256L63.1605 44.7056L63.1653 44.7032L62.9417 44.256ZM65.4377 41.994L65.7043 41.571L65.292 41.3112L65.0217 41.7166L65.4377 41.994ZM68.2847 43.788L68.7203 44.0335L68.9541 43.6188L68.5513 43.365L68.2847 43.788ZM64.8527 47.103L65.0827 47.547L65.0856 47.5455L64.8527 47.103ZM59.8607 48.234V47.734C57.8291 47.734 56.0282 47.2958 54.4456 46.4303L54.2057 46.869L53.9658 47.3077C55.7113 48.2622 57.6803 48.734 59.8607 48.734V48.234ZM54.2057 46.869L54.4486 46.4319C52.8869 45.5643 51.6653 44.3789 50.7753 42.8709L50.3447 43.125L49.9141 43.3791C50.8962 45.0431 52.2486 46.3537 53.9629 47.3061L54.2057 46.869ZM50.3447 43.125L50.7753 42.8709C49.8899 41.3705 49.4407 39.6402 49.4407 37.665H48.9407H48.4407C48.4407 39.7978 48.9276 41.7075 49.9141 43.3791L50.3447 43.125ZM48.9407 37.665H49.4407C49.4407 35.6898 49.8899 33.9595 50.7753 32.4591L50.3447 32.205L49.9141 31.9509C48.9276 33.6225 48.4407 35.5322 48.4407 37.665H48.9407ZM50.3447 32.205L50.7753 32.4591C51.6646 30.9524 52.8844 29.7813 54.4432 28.94L54.2057 28.5L53.9683 28.06C52.2511 28.9867 50.8969 30.2856 49.9141 31.9509L50.3447 32.205ZM54.2057 28.5L54.4456 28.9387C56.0282 28.0732 57.8291 27.635 59.8607 27.635V27.135V26.635C57.6803 26.635 55.7113 27.1068 53.9658 28.0613L54.2057 28.5ZM59.8607 27.135V27.635C61.6641 27.635 63.2474 27.9977 64.6228 28.71L64.8527 28.266L65.0827 27.822C63.5461 27.0263 61.8013 26.635 59.8607 26.635V27.135ZM64.8527 28.266L64.6323 28.7148C66.0218 29.3973 67.0904 30.4168 67.8473 31.7842L68.2847 31.542L68.7222 31.2998C67.8671 29.7552 66.6477 28.5907 65.0732 27.8172L64.8527 28.266ZM68.2847 31.542L68.0141 31.1216L65.1671 32.9546L65.4377 33.375L65.7084 33.7954L68.5554 31.9624L68.2847 31.542ZM65.4377 33.375L65.8538 33.0976C65.1334 32.0171 64.2348 31.2113 63.1558 30.7001L62.9417 31.152L62.7277 31.6039C63.6247 32.0287 64.3901 32.7049 65.0217 33.6524L65.4377 33.375ZM62.9417 31.152L63.1701 30.7072C62.135 30.1757 61.0164 29.911 59.8217 29.911V30.411V30.911C60.8631 30.911 61.8244 31.1403 62.7133 31.5968L62.9417 31.152ZM59.8217 30.411V29.911C58.3934 29.911 57.0985 30.2277 55.9501 30.8719L56.1947 31.308L56.4394 31.7441C57.4229 31.1923 58.5461 30.911 59.8217 30.911V30.411ZM56.1947 31.308L55.9501 30.8719C54.8027 31.5156 53.8932 32.4266 53.2256 33.5949L53.6597 33.843L54.0939 34.0911C54.6743 33.0754 55.4548 32.2964 56.4394 31.7441L56.1947 31.308ZM53.6597 33.843L53.2282 33.5904C52.5512 34.747 52.2237 36.112 52.2237 37.665H52.7237H53.2237C53.2237 36.254 53.5203 35.071 54.0912 34.0956L53.6597 33.843ZM52.7237 37.665H52.2237C52.2237 39.2184 52.5513 40.594 53.2256 41.7741L53.6597 41.526L54.0939 41.2779C53.5202 40.274 53.2237 39.0756 53.2237 37.665H52.7237ZM53.6597 41.526L53.2256 41.7741C53.8932 42.9424 54.8027 43.8534 55.9501 44.4971L56.1947 44.061L56.4394 43.6249C55.4548 43.0726 54.6743 42.2936 54.0939 41.2779L53.6597 41.526ZM56.1947 44.061L55.9501 44.4971C57.0985 45.1413 58.3934 45.458 59.8217 45.458V44.958V44.458C58.5461 44.458 57.4229 44.1767 56.4394 43.6249L56.1947 44.061ZM59.8217 44.958V45.458C61.012 45.458 62.1272 45.2083 63.1605 44.7056L62.9417 44.256L62.723 43.8064C61.8322 44.2397 60.8675 44.458 59.8217 44.458V44.958ZM62.9417 44.256L63.1653 44.7032C64.239 44.1664 65.1346 43.3501 65.8538 42.2714L65.4377 41.994L65.0217 41.7166C64.3889 42.6659 63.6205 43.3576 62.7181 43.8088L62.9417 44.256ZM65.4377 41.994L65.1712 42.417L68.0182 44.211L68.2847 43.788L68.5513 43.365L65.7043 41.571L65.4377 41.994ZM68.2847 43.788L67.8492 43.5425C67.0914 44.8869 66.0186 45.9244 64.6199 46.6605L64.8527 47.103L65.0856 47.5455C66.6509 46.7216 67.8661 45.5491 68.7203 44.0335L68.2847 43.788ZM64.8527 47.103L64.6228 46.659C63.2474 47.3713 61.6641 47.734 59.8607 47.734V48.234V48.734C61.8013 48.734 63.5461 48.3427 65.0827 47.547L64.8527 47.103ZM72.8654 48H72.3654V48.5H72.8654V48ZM72.8654 27.33V26.83H72.3654V27.33H72.8654ZM76.6094 27.33H77.1094V26.83H76.6094V27.33ZM76.6094 48V48.5H77.1094V48H76.6094ZM72.9044 22.65L72.5507 23.0037L72.5605 23.013L72.9044 22.65ZM72.9044 19.179L72.5604 18.8159L72.5508 18.8254L72.9044 19.179ZM76.5314 19.179L76.1779 19.5326L76.1877 19.5424L76.198 19.5516L76.5314 19.179ZM76.5704 22.65L76.9241 23.0037L76.9334 22.9939L76.5704 22.65ZM72.8654 48H73.3654V27.33H72.8654H72.3654V48H72.8654ZM72.8654 27.33V27.83H76.6094V27.33V26.83H72.8654V27.33ZM76.6094 27.33H76.1094V48H76.6094H77.1094V27.33H76.6094ZM76.6094 48V47.5H72.8654V48V48.5H76.6094V48ZM74.7374 23.352V22.852C74.1275 22.852 73.6425 22.6605 73.2483 22.287L72.9044 22.65L72.5605 23.013C73.1543 23.5755 73.8913 23.852 74.7374 23.852V23.352ZM72.9044 22.65L73.258 22.2964C72.8859 21.9244 72.7024 21.4806 72.7024 20.934H72.2024H71.7024C71.7024 21.7394 71.9869 22.4396 72.5508 23.0036L72.9044 22.65ZM72.2024 20.934H72.7024C72.7024 20.3557 72.8899 19.9007 73.258 19.5326L72.9044 19.179L72.5508 18.8254C71.983 19.3933 71.7024 20.1083 71.7024 20.934H72.2024ZM72.9044 19.179L73.2483 19.542C73.6425 19.1685 74.1275 18.977 74.7374 18.977V18.477V17.977C73.8913 17.977 73.1543 18.2535 72.5605 18.816L72.9044 19.179ZM74.7374 18.477V18.977C75.3474 18.977 75.8134 19.1681 76.1779 19.5326L76.5314 19.179L76.885 18.8254C76.3134 18.2539 75.5835 17.977 74.7374 17.977V18.477ZM76.5314 19.179L76.198 19.5516C76.5836 19.8966 76.7724 20.319 76.7724 20.856H77.2724H77.7724C77.7724 20.041 77.4672 19.3454 76.8648 18.8064L76.5314 19.179ZM77.2724 20.856H76.7724C76.7724 21.4346 76.5844 21.9082 76.2074 22.3061L76.5704 22.65L76.9334 22.9939C77.4924 22.4038 77.7724 21.6814 77.7724 20.856H77.2724ZM76.5704 22.65L76.2169 22.2964C75.8559 22.6574 75.3789 22.852 74.7374 22.852V23.352V23.852C75.6039 23.852 76.3489 23.5786 76.924 23.0036L76.5704 22.65ZM83.758 48H83.258V48.5H83.758V48ZM83.758 19.062V18.562H83.258V19.062H83.758ZM87.502 19.062H88.002V18.562H87.502V19.062ZM87.502 48V48.5H88.002V48H87.502ZM83.758 48H84.258V19.062H83.758H83.258V48H83.758ZM83.758 19.062V19.562H87.502V19.062V18.562H83.758V19.062ZM87.502 19.062H87.002V48H87.502H88.002V19.062H87.502ZM87.502 48V47.5H83.758V48V48.5H87.502V48ZM100.891 47.064L100.642 47.4977L100.651 47.5029L100.891 47.064ZM97.4976 43.515L97.0564 43.7503L97.0595 43.756L97.4976 43.515ZM97.4586 31.815L97.0173 31.5797L97.0144 31.5855L97.4586 31.815ZM100.813 28.305L100.573 27.866L100.57 27.8679L100.813 28.305ZM110.992 28.461L111.238 28.026V28.026L110.992 28.461ZM114.697 32.166L114.263 32.4148L114.265 32.4179L114.697 32.166ZM114.697 43.203L114.263 42.9542V42.9542L114.697 43.203ZM110.992 46.908L111.238 47.343V47.343L110.992 46.908ZM94.6506 55.566H94.1506V56.066H94.6506V55.566ZM94.6506 27.33V26.83H94.1506V27.33H94.6506ZM98.2386 27.33H98.7386V26.83H98.2386V27.33ZM98.2386 32.907L98.738 32.9314L98.7386 32.9192V32.907H98.2386ZM98.0046 37.704L97.5052 37.6796L97.5036 37.7121L97.5062 37.7445L98.0046 37.704ZM98.3946 42.501H98.8946V42.4807L98.8929 42.4605L98.3946 42.501ZM98.3946 55.566V56.066H98.8946V55.566H98.3946ZM108.847 44.061L108.602 43.6249L108.597 43.6275L108.847 44.061ZM111.343 41.526L110.906 41.2823L110.904 41.2858L111.343 41.526ZM111.343 33.843L110.904 34.0832L110.907 34.0894L110.911 34.0956L111.343 33.843ZM108.847 31.308L108.597 31.7415L108.602 31.7441L108.847 31.308ZM101.749 31.308L101.504 30.8719L101.499 30.8745L101.749 31.308ZM99.2526 33.843L98.8184 33.5949L98.8165 33.5984L99.2526 33.843ZM99.2526 41.526L98.8115 41.7619L98.8184 41.7741L99.2526 41.526ZM101.749 44.061L101.499 44.4945L101.504 44.4971L101.749 44.061ZM105.61 48.234V47.734C103.973 47.734 102.483 47.3628 101.13 46.6251L100.891 47.064L100.651 47.5029C102.159 48.3252 103.815 48.734 105.61 48.734V48.234ZM100.891 47.064L101.139 46.6304C99.8228 45.8745 98.754 44.762 97.9357 43.274L97.4976 43.515L97.0595 43.756C97.9571 45.388 99.1503 46.6415 100.642 47.4976L100.891 47.064ZM97.4976 43.515L97.9387 43.2797C97.1558 41.8117 96.7496 39.9485 96.7496 37.665H96.2496H95.7496C95.7496 40.0615 96.1753 42.0983 97.0564 43.7503L97.4976 43.515ZM96.2496 37.665H96.7496C96.7496 35.3794 97.1436 33.514 97.9028 32.0445L97.4586 31.815L97.0144 31.5855C96.1616 33.236 95.7496 35.2706 95.7496 37.665H96.2496ZM97.4586 31.815L97.8997 32.0503C98.6912 30.5664 99.7439 29.4707 101.055 28.7421L100.813 28.305L100.57 27.8679C99.0732 28.6993 97.89 29.9436 97.0174 31.5797L97.4586 31.815ZM100.813 28.305L101.052 28.7439C102.402 28.0074 103.918 27.635 105.61 27.635V27.135V26.635C103.765 26.635 102.083 27.0426 100.573 27.8661L100.813 28.305ZM105.61 27.135V27.635C107.563 27.635 109.27 28.0599 110.745 28.896L110.992 28.461L111.238 28.026C109.593 27.094 107.712 26.635 105.61 26.635V27.135ZM110.992 28.461L110.745 28.896C112.226 29.7349 113.397 30.9049 114.263 32.4148L114.697 32.166L115.13 31.9172C114.177 30.2551 112.878 28.9551 111.238 28.026L110.992 28.461ZM114.697 32.166L114.265 32.4179C115.123 33.8896 115.562 35.6327 115.562 37.665H116.062H116.562C116.562 35.4853 116.09 33.5624 115.128 31.9141L114.697 32.166ZM116.062 37.665H115.562C115.562 39.6971 115.123 41.4547 114.263 42.9542L114.697 43.203L115.13 43.4518C116.09 41.7793 116.562 39.8449 116.562 37.665H116.062ZM114.697 43.203L114.263 42.9542C113.397 44.4641 112.226 45.6341 110.745 46.473L110.992 46.908L111.238 47.343C112.878 46.4139 114.177 45.1139 115.13 43.4518L114.697 43.203ZM110.992 46.908L110.745 46.473C109.27 47.3091 107.563 47.734 105.61 47.734V48.234V48.734C107.712 48.734 109.593 48.2749 111.238 47.343L110.992 46.908ZM94.6506 55.566H95.1506V27.33H94.6506H94.1506V55.566H94.6506ZM94.6506 27.33V27.83H98.2386V27.33V26.83H94.6506V27.33ZM98.2386 27.33H97.7386V32.907H98.2386H98.7386V27.33H98.2386ZM98.2386 32.907L97.7392 32.8826L97.5052 37.6796L98.0046 37.704L98.504 37.7284L98.738 32.9314L98.2386 32.907ZM98.0046 37.704L97.5062 37.7445L97.8962 42.5415L98.3946 42.501L98.8929 42.4605L98.5029 37.6635L98.0046 37.704ZM98.3946 42.501H97.8946V55.566H98.3946H98.8946V42.501H98.3946ZM98.3946 55.566V55.066H94.6506V55.566V56.066H98.3946V55.566ZM105.298 44.958V45.458C106.702 45.458 107.972 45.1405 109.096 44.4945L108.847 44.061L108.597 43.6275C107.641 44.1775 106.546 44.458 105.298 44.458V44.958ZM108.847 44.061L109.091 44.4971C110.241 43.8523 111.139 42.9387 111.781 41.7662L111.343 41.526L110.904 41.2858C110.35 42.2973 109.585 43.0737 108.602 43.6249L108.847 44.061ZM111.343 41.526L111.779 41.7697C112.45 40.5675 112.779 39.1944 112.779 37.665H112.279H111.779C111.779 39.0476 111.483 40.2485 110.906 41.2823L111.343 41.526ZM112.279 37.665H112.779C112.779 36.112 112.451 34.747 111.774 33.5904L111.343 33.843L110.911 34.0956C111.482 35.071 111.779 36.254 111.779 37.665H112.279ZM111.343 33.843L111.781 33.6028C111.139 32.4303 110.241 31.5167 109.091 30.8719L108.847 31.308L108.602 31.7441C109.585 32.2953 110.35 33.0717 110.904 34.0832L111.343 33.843ZM108.847 31.308L109.096 30.8745C107.972 30.2285 106.702 29.911 105.298 29.911V30.411V30.911C106.546 30.911 107.641 31.1915 108.597 31.7415L108.847 31.308ZM105.298 30.411V29.911C103.918 29.911 102.649 30.2293 101.504 30.8719L101.749 31.308L101.993 31.7441C102.98 31.1907 104.078 30.911 105.298 30.911V30.411ZM101.749 31.308L101.499 30.8745C100.379 31.519 99.4843 32.4297 98.8184 33.5949L99.2526 33.843L99.6867 34.0911C100.269 33.0723 101.039 32.293 101.998 31.7415L101.749 31.308ZM99.2526 33.843L98.8165 33.5984C98.1685 34.7534 97.8556 36.1154 97.8556 37.665H98.3556H98.8556C98.8556 36.2506 99.1406 35.0646 99.6886 34.0876L99.2526 33.843ZM98.3556 37.665H97.8556C97.8556 39.191 98.1694 40.5611 98.8117 41.7618L99.2526 41.526L99.6935 41.2902C99.1397 40.2548 98.8556 39.051 98.8556 37.665H98.3556ZM99.2526 41.526L98.8184 41.7741C99.4843 42.9393 100.379 43.85 101.499 44.4945L101.749 44.061L101.998 43.6275C101.039 43.076 100.269 42.2967 99.6867 41.2779L99.2526 41.526ZM101.749 44.061L101.504 44.4971C102.649 45.1397 103.918 45.458 105.298 45.458V44.958V44.458C104.078 44.458 102.98 44.1783 101.993 43.6249L101.749 44.061ZM133.875 48H133.375V48.5H133.875V48ZM133.875 43.632H134.375V43.5733L134.362 43.5162L133.875 43.632ZM133.68 42.813H133.18V42.8717L133.194 42.9288L133.68 42.813ZM132.276 31.698L131.928 32.0566L131.933 32.0617L131.938 32.0666L132.276 31.698ZM124.554 30.996L124.712 31.4704L124.722 31.4671L124.554 30.996ZM121.59 32.595L121.153 32.8378L121.447 33.3674L121.911 32.9781L121.59 32.595ZM120.03 29.787L119.717 29.3975L119.388 29.6616L119.593 30.0298L120.03 29.787ZM123.852 27.837L123.995 28.3162L124 28.3145L123.852 27.837ZM137.424 48V48.5H137.924V48H137.424ZM123.033 47.454L122.826 47.9092L122.83 47.9109L123.033 47.454ZM120.381 45.309L119.965 45.5864L119.969 45.5918L120.381 45.309ZM120.225 39.108L119.796 38.8507L119.791 38.8599L120.225 39.108ZM122.838 36.924L122.634 36.4675L122.63 36.4692L122.838 36.924ZM134.304 36.105H134.804V35.605H134.304V36.105ZM134.304 38.796V39.296H134.804V38.796H134.304ZM124.125 39.732L123.779 39.3713V39.3713L124.125 39.732ZM124.359 44.451L124.053 44.8464L124.061 44.8526L124.359 44.451ZM131.379 44.412L131.127 43.9805L131.122 43.9833L131.379 44.412ZM133.68 41.682L134.161 41.5437L133.752 40.1254L133.214 41.4998L133.68 41.682ZM134.421 44.256L134.885 44.4434L134.949 44.2835L134.902 44.1177L134.421 44.256ZM131.808 47.181L132.053 47.6168L132.06 47.6129L131.808 47.181ZM133.875 48H134.375V43.632H133.875H133.375V48H133.875ZM133.875 43.632L134.362 43.5162L134.167 42.6972L133.68 42.813L133.194 42.9288L133.389 43.7478L133.875 43.632ZM133.68 42.813H134.18V35.364H133.68H133.18V42.813H133.68ZM133.68 35.364H134.18C134.18 33.6752 133.678 32.3047 132.614 31.3294L132.276 31.698L131.938 32.0666C132.746 32.8073 133.18 33.8808 133.18 35.364H133.68ZM132.276 31.698L132.625 31.3394C131.586 30.3306 130.059 29.872 128.142 29.872V30.372V30.872C129.917 30.872 131.146 31.2974 131.928 32.0566L132.276 31.698ZM128.142 30.372V29.872C126.862 29.872 125.61 30.0901 124.387 30.5249L124.554 30.996L124.722 31.4671C125.839 31.0699 126.978 30.872 128.142 30.872V30.372ZM124.554 30.996L124.396 30.5217C123.176 30.9282 122.131 31.4892 121.269 32.2119L121.59 32.595L121.911 32.9781C122.662 32.3488 123.592 31.8438 124.712 31.4703L124.554 30.996ZM121.59 32.595L122.027 32.3522L120.467 29.5442L120.03 29.787L119.593 30.0298L121.153 32.8378L121.59 32.595ZM120.03 29.787L120.344 30.1765C121.353 29.3641 122.567 28.742 123.995 28.3161L123.852 27.837L123.709 27.3579C122.173 27.816 120.839 28.4939 119.717 29.3975L120.03 29.787ZM123.852 27.837L124 28.3145C125.459 27.862 126.981 27.635 128.571 27.635V27.135V26.635C126.885 26.635 125.262 26.876 123.704 27.3595L123.852 27.837ZM128.571 27.135V27.635C131.328 27.635 133.376 28.3049 134.789 29.574L135.123 29.202L135.457 28.83C133.802 27.3431 131.482 26.635 128.571 26.635V27.135ZM135.123 29.202L134.789 29.574C136.182 30.8256 136.924 32.7727 136.924 35.52H137.424H137.924C137.924 32.5993 137.132 30.3344 135.457 28.83L135.123 29.202ZM137.424 35.52H136.924V48H137.424H137.924V35.52H137.424ZM137.424 48V47.5H133.875V48V48.5H137.424V48ZM127.089 48.234V47.734C125.611 47.734 124.331 47.4836 123.236 46.9971L123.033 47.454L122.83 47.9109C124.075 48.4644 125.499 48.734 127.089 48.734V48.234ZM123.033 47.454L123.24 46.9988C122.167 46.5112 121.359 45.8511 120.793 45.0262L120.381 45.309L119.969 45.5918C120.651 46.5869 121.611 47.3568 122.826 47.9092L123.033 47.454ZM120.381 45.309L120.797 45.0317C120.23 44.1812 119.945 43.2255 119.945 42.15H119.445H118.945C118.945 43.4145 119.284 44.5648 119.965 45.5863L120.381 45.309ZM119.445 42.15H119.945C119.945 41.113 120.185 40.1855 120.659 39.3561L120.225 39.108L119.791 38.8599C119.225 39.8505 118.945 40.951 118.945 42.15H119.445ZM120.225 39.108L120.654 39.3652C121.137 38.5607 121.92 37.893 123.046 37.3788L122.838 36.924L122.63 36.4692C121.365 37.047 120.406 37.8353 119.796 38.8508L120.225 39.108ZM122.838 36.924L123.042 37.3805C124.175 36.8744 125.735 36.605 127.752 36.605V36.105V35.605C125.662 35.605 123.945 35.8816 122.634 36.4675L122.838 36.924ZM127.752 36.105V36.605H134.304V36.105V35.605H127.752V36.105ZM134.304 36.105H133.804V38.796H134.304H134.804V36.105H134.304ZM134.304 38.796V38.296H127.908V38.796V39.296H134.304V38.796ZM127.908 38.796V38.296C126.948 38.296 126.121 38.3757 125.438 38.5446C124.758 38.7129 124.189 38.9777 123.779 39.3713L124.125 39.732L124.471 40.0927C124.711 39.8623 125.098 39.6591 125.678 39.5154C126.257 39.3723 126.996 39.296 127.908 39.296V38.796ZM124.125 39.732L123.779 39.3713C123.033 40.0875 122.65 40.9709 122.65 41.994H123.15H123.65C123.65 41.2491 123.917 40.6245 124.471 40.0927L124.125 39.732ZM123.15 41.994H122.65C122.65 43.1636 123.125 44.1283 124.053 44.8464L124.359 44.451L124.665 44.0556C123.981 43.5257 123.65 42.8524 123.65 41.994H123.15ZM124.359 44.451L124.061 44.8526C124.983 45.5365 126.22 45.848 127.713 45.848V45.348V44.848C126.346 44.848 125.347 44.5615 124.657 44.0494L124.359 44.451ZM127.713 45.348V45.848C129.193 45.848 130.507 45.5183 131.636 44.8407L131.379 44.412L131.122 43.9833C130.171 44.5537 129.041 44.848 127.713 44.848V45.348ZM131.379 44.412L131.632 44.8435C132.799 44.1603 133.639 43.1604 134.146 41.8642L133.68 41.682L133.214 41.4998C132.786 42.5956 132.091 43.4157 131.127 43.9805L131.379 44.412ZM133.68 41.682L133.2 41.8203L133.941 44.3943L134.421 44.256L134.902 44.1177L134.161 41.5437L133.68 41.682ZM134.421 44.256L133.958 44.0686C133.509 45.1779 132.718 46.0712 131.556 46.7491L131.808 47.181L132.06 47.6129C133.394 46.8348 134.345 45.7781 134.885 44.4434L134.421 44.256ZM131.808 47.181L131.563 46.7452C130.41 47.3936 128.928 47.734 127.089 47.734V48.234V48.734C129.046 48.734 130.71 48.3724 132.053 47.6168L131.808 47.181ZM141.983 55.293L142.153 54.8226L142.141 54.8187L141.983 55.293ZM139.565 53.889L139.13 53.6416L138.934 53.9869L139.226 54.2564L139.565 53.889ZM141.164 51.081L141.508 50.7185L141.045 50.2787L140.729 50.8336L141.164 51.081ZM142.88 52.212L143.072 51.7505V51.7505L142.88 52.212ZM147.131 51.9L146.823 51.5062V51.5062L147.131 51.9ZM148.808 49.404L148.352 49.198L148.349 49.2046L148.808 49.404ZM150.095 46.557L149.711 46.2369L149.667 46.2891L149.639 46.351L150.095 46.557ZM150.485 46.089L150.869 46.4091L150.915 46.3537L150.944 46.2875L150.485 46.089ZM158.597 27.33V26.83H158.268L158.138 27.1315L158.597 27.33ZM162.263 27.33L162.72 27.5317L163.03 26.83H162.263V27.33ZM152.24 50.067L151.782 49.8652L151.777 49.877L152.24 50.067ZM150.212 53.499L149.841 53.1632L149.836 53.1697L150.212 53.499ZM147.794 55.254L147.615 54.7868L147.603 54.7917L147.794 55.254ZM149.783 48.663L149.326 48.8653L149.647 49.5922L150.163 48.9876L149.783 48.663ZM140.345 27.33V26.83H139.577L139.888 27.5323L140.345 27.33ZM144.245 27.33L144.703 27.13L144.572 26.83H144.245V27.33ZM152.279 45.738L152.659 46.0626L152.862 45.8246L152.737 45.538L152.279 45.738ZM144.869 55.8V55.3C143.939 55.3 143.035 55.1412 142.153 54.8227L141.983 55.293L141.813 55.7633C142.803 56.1208 143.823 56.3 144.869 56.3V55.8ZM141.983 55.293L142.141 54.8187C141.267 54.5274 140.524 54.0941 139.904 53.5216L139.565 53.889L139.226 54.2564C139.957 54.9319 140.826 55.4346 141.825 55.7673L141.983 55.293ZM139.565 53.889L139.999 54.1364L141.598 51.3284L141.164 51.081L140.729 50.8336L139.13 53.6416L139.565 53.889ZM141.164 51.081L140.819 51.4435C141.381 51.9769 142.004 52.3887 142.688 52.6735L142.88 52.212L143.072 51.7505C142.508 51.5153 141.987 51.1731 141.508 50.7185L141.164 51.081ZM142.88 52.212L142.688 52.6735C143.375 52.9599 144.103 53.102 144.869 53.102V52.602V52.102C144.23 52.102 143.633 51.9841 143.072 51.7505L142.88 52.212ZM144.869 52.602V53.102C145.868 53.102 146.737 52.8435 147.439 52.2938L147.131 51.9L146.823 51.5062C146.329 51.8925 145.69 52.102 144.869 52.102V52.602ZM147.131 51.9L147.439 52.2938C148.134 51.7499 148.734 50.828 149.266 49.6034L148.808 49.404L148.349 49.2046C147.842 50.372 147.324 51.1141 146.823 51.5062L147.131 51.9ZM148.808 49.404L149.263 49.61L150.55 46.763L150.095 46.557L149.639 46.351L148.352 49.198L148.808 49.404ZM150.095 46.557L150.479 46.8771L150.869 46.4091L150.485 46.089L150.101 45.7689L149.711 46.2369L150.095 46.557ZM150.485 46.089L150.944 46.2875L159.056 27.5285L158.597 27.33L158.138 27.1315L150.026 45.8905L150.485 46.089ZM158.597 27.33V27.83H162.263V27.33V26.83H158.597V27.33ZM162.263 27.33L161.805 27.1283L151.782 49.8653L152.24 50.067L152.697 50.2687L162.72 27.5317L162.263 27.33ZM152.24 50.067L151.777 49.877C151.193 51.2993 150.544 52.3876 149.841 53.1632L150.212 53.499L150.582 53.8348C151.387 52.9464 152.091 51.7467 152.702 50.257L152.24 50.067ZM150.212 53.499L149.836 53.1697C149.152 53.9507 148.411 54.4826 147.615 54.787L147.794 55.254L147.972 55.721C148.944 55.3494 149.815 54.7113 150.588 53.8283L150.212 53.499ZM147.794 55.254L147.603 54.7917C146.786 55.1281 145.877 55.3 144.869 55.3V55.8V56.3C145.993 56.3 147.033 56.1079 147.984 55.7163L147.794 55.254ZM149.783 48.663L150.24 48.4607L140.802 27.1277L140.345 27.33L139.888 27.5323L149.326 48.8653L149.783 48.663ZM140.345 27.33V27.83H144.245V27.33V26.83H140.345V27.33ZM144.245 27.33L143.787 27.53L151.821 45.938L152.279 45.738L152.737 45.538L144.703 27.13L144.245 27.33ZM152.279 45.738L151.899 45.4134L149.403 48.3384L149.783 48.663L150.163 48.9876L152.659 46.0626L152.279 45.738Z" fill="white" mask="url(#path-1-outside-1_178_2155)"/>
</g>
<defs>
<clipPath id="clip0_178_2155">
<rect width="167" height="68" fill="white"/>
</clipPath>
</defs>
</svg>
