<svg width="128" height="128" viewBox="0 0 128 128" fill="none" xmlns="http://www.w3.org/2000/svg">
<g clip-path="url(#clip0_164_2129)">
<g filter="url(#filter0_i_164_2129)">
<rect width="128" height="128" rx="18.32" fill="white"/>
</g>
<path d="M90.6045 45.4803L94.7102 38.3537C95.0942 37.687 94.6131 36.8545 93.8437 36.8545H53.729C53.3717 36.8545 53.0415 37.0451 52.8629 37.3546L31.4782 74.4011C31.2995 74.7106 31.2997 75.092 31.4785 75.4015L33.8555 79.5133L35.654 82.6246C36.0394 83.2914 37.0021 83.2905 37.3863 82.6232L58.1951 46.4822C58.3736 46.1722 58.704 45.9812 59.0617 45.9812H89.738C90.0956 45.9812 90.426 45.7902 90.6045 45.4803Z" fill="black"/>
<path d="M61.4064 53.5501L57.2696 60.6831C56.8837 61.3483 57.3619 62.1819 58.1309 62.1848L75.8559 62.2499C76.6271 62.2527 77.105 63.0904 76.7149 63.7557L72.5324 70.8887C72.3529 71.1949 72.0246 71.3829 71.6698 71.3829H51.7043C51.348 71.3829 51.0186 71.5725 50.8396 71.8806L39.9897 90.5568C39.81 90.8661 39.8092 91.2479 39.9877 91.558L44.1655 98.8157C44.5499 99.4835 45.5133 99.4839 45.8983 98.8165L56.1137 81.1072C56.2923 80.7976 56.6225 80.6069 56.9799 80.6069H76.9978C77.3548 80.6069 77.6847 80.4166 77.8634 80.1076L92.6443 54.5524C93.0299 53.8858 92.5488 53.0518 91.7786 53.0518H62.2715C61.9149 53.0518 61.5853 53.2416 61.4064 53.5501Z" fill="black"/>
</g>
<defs>
<filter id="filter0_i_164_2129" x="-4.03529" y="0" width="132.035" height="140.106" filterUnits="userSpaceOnUse" color-interpolation-filters="sRGB">
<feFlood flood-opacity="0" result="BackgroundImageFix"/>
<feBlend mode="normal" in="SourceGraphic" in2="BackgroundImageFix" result="shape"/>
<feColorMatrix in="SourceAlpha" type="matrix" values="0 0 0 0 0 0 0 0 0 0 0 0 0 0 0 0 0 0 127 0" result="hardAlpha"/>
<feOffset dx="-4.03529" dy="12.1059"/>
<feGaussianBlur stdDeviation="6.05294"/>
<feComposite in2="hardAlpha" operator="arithmetic" k2="-1" k3="1"/>
<feColorMatrix type="matrix" values="0 0 0 0 1 0 0 0 0 1 0 0 0 0 1 0 0 0 0.02 0"/>
<feBlend mode="normal" in2="shape" result="effect1_innerShadow_164_2129"/>
</filter>
<clipPath id="clip0_164_2129">
<rect width="128" height="128" fill="white"/>
</clipPath>
</defs>
</svg>
